<svg version="1.1" id="Layer_1" xmlns="http://www.w3.org/2000/svg" xmlns:xlink="http://www.w3.org/1999/xlink" x="0px" y="0px"
	 width="100%" viewBox="0 0 1000 1000" enable-background="new 0 0 1000 1000" xml:space="preserve">
<path fill="#FFFFFF" opacity="1.000000" stroke="none" 
	d="
M669.000000,1001.000000 
	C446.000000,1001.000000 223.500000,1001.000000 1.000000,1001.000000 
	C1.000000,667.666687 1.000000,334.333344 1.000000,1.000000 
	C334.333344,1.000000 667.666687,1.000000 1001.000000,1.000000 
	C1001.000000,334.333344 1001.000000,667.666687 1001.000000,1001.000000 
	C890.500000,1001.000000 780.000000,1001.000000 669.000000,1001.000000 
M462.897552,485.562317 
	C460.135864,490.331451 457.374207,495.100586 453.797028,499.896851 
	C453.134033,499.889618 452.469238,499.847137 451.808319,499.880737 
	C446.226471,500.164185 442.289551,503.493347 441.364014,508.695343 
	C440.562439,513.200684 443.342499,518.097046 447.748322,519.939575 
	C452.248962,521.821777 457.197845,520.452087 460.159912,516.504456 
	C463.113739,512.567810 462.846527,507.329193 459.565765,503.204468 
	C458.793488,502.233521 458.250244,501.080414 458.050659,499.458008 
	C460.707886,494.643372 463.365143,489.828766 466.388092,484.446777 
	C468.238770,481.297607 470.089478,478.148438 472.290222,474.380280 
	C474.556519,472.592285 474.215271,468.409912 478.584595,468.367462 
	C482.829498,468.326172 485.313507,465.623749 485.241211,461.240265 
	C485.176941,457.341827 482.848175,454.951416 479.112885,454.558502 
	C474.834473,454.108521 472.466309,456.551453 471.194855,460.589355 
	C470.772095,461.932037 469.251068,463.333832 467.895966,463.891235 
	C465.308014,464.955780 462.512665,465.703094 459.736725,466.053223 
	C458.084259,466.261658 455.993683,465.927551 454.644012,465.024414 
	C451.362335,462.828491 448.204926,462.305298 444.932465,464.592499 
	C441.847137,466.748901 440.907654,469.892761 442.014709,473.409546 
	C443.132690,476.961060 445.844482,478.925873 449.532928,478.829254 
	C453.425781,478.727203 455.909698,476.528870 457.088623,472.719238 
	C457.468781,471.490845 458.345123,469.829132 459.368195,469.488739 
	C463.697662,468.048218 468.167816,467.030670 473.770508,465.544525 
	C472.189209,469.074890 471.090271,471.528320 469.447662,474.375092 
	C467.411133,477.921326 465.374603,481.467560 462.897552,485.562317 
M409.020752,484.923096 
	C403.448364,486.996460 400.890930,491.106964 402.265228,495.781006 
	C403.516937,500.038147 408.002533,502.852539 412.357849,501.876038 
	C416.064850,501.044861 418.556427,498.765656 419.132721,494.862122 
	C419.838470,490.081665 417.650635,486.916382 413.373993,484.171234 
	C413.865997,479.780792 414.358032,475.390350 415.167725,470.323883 
	C415.820709,467.967438 416.413940,465.592346 417.140350,463.258759 
	C418.302643,459.524872 417.272705,454.881012 422.215118,452.651611 
	C423.189819,452.211975 423.674164,448.472748 422.916565,447.021729 
	C422.144714,445.543365 419.424896,444.082855 417.810547,444.321625 
	C416.162354,444.565460 414.018463,446.636169 413.491455,448.340057 
	C411.695160,454.147919 405.553925,458.994598 399.406281,458.730621 
	C395.658417,458.569672 393.256012,460.204285 392.986206,464.056152 
	C392.755219,467.353546 394.538116,469.552704 397.781158,469.968445 
	C401.518311,470.447510 403.681335,468.548828 404.357819,464.776245 
	C404.616669,463.332611 405.034943,461.500397 406.053009,460.690887 
	C408.741272,458.553345 411.797485,456.878601 415.432892,454.556000 
	C414.549103,460.621552 413.792053,465.817078 412.688873,471.681091 
	C411.705261,476.090881 410.721680,480.500641 409.020752,484.923096 
M479.972717,515.799683 
	C479.169312,517.374390 478.456940,519.004639 477.538910,520.509399 
	C476.451813,522.291321 474.660004,523.811279 474.104401,525.716248 
	C472.748474,530.364807 475.570679,534.867065 480.103363,536.082642 
	C484.485321,537.257751 489.048737,534.976501 490.601593,530.834534 
	C492.247986,526.443237 490.228851,521.721802 485.755096,519.750427 
	C483.935333,518.948547 481.365509,519.066345 481.895508,515.125977 
	C482.434753,512.832458 482.522980,510.293243 483.609924,508.298157 
	C485.685333,504.488739 485.296356,500.833771 481.934082,498.689178 
	C478.690155,496.620056 474.298645,497.864410 472.585175,501.338104 
	C470.869507,504.816376 472.301849,508.907471 476.368927,510.152344 
	C479.181763,511.013336 479.987244,512.530823 479.972717,515.799683 
M379.828033,539.801819 
	C387.819733,549.928894 400.544739,549.062195 406.627991,537.531311 
	C406.901855,534.683960 407.175720,531.836670 407.488953,528.306030 
	C402.972931,514.343628 391.172089,512.566833 378.514008,523.955811 
	C373.628296,521.638916 368.742554,519.322083 364.091553,516.269165 
	C364.512268,513.508301 364.932983,510.747467 365.588715,507.250458 
	C365.069244,504.170654 364.549805,501.090851 364.723663,497.878845 
	C367.747620,495.908691 370.771545,493.938568 373.752258,491.996582 
	C380.215302,499.220917 387.475739,497.829132 390.900238,488.258392 
	C389.971191,482.303589 386.613342,478.950470 381.813141,479.184021 
	C376.950562,479.420654 374.083252,482.820160 372.964966,489.512115 
	C369.295959,491.638824 365.626953,493.765564 362.008942,495.862701 
	C348.761292,482.852753 331.875153,484.340851 324.333282,499.418884 
	C323.745758,502.610077 323.158234,505.801270 322.374084,509.728973 
	C323.347382,512.819824 324.320709,515.910706 325.461823,519.628479 
	C335.330627,533.539734 349.906647,533.689514 362.889008,519.867432 
	C363.877655,520.299133 364.947510,520.721008 365.977509,521.224365 
	C369.260315,522.828613 372.643036,524.277588 375.737823,526.190063 
	C376.775024,526.830994 377.063690,528.683350 377.346802,530.689148 
	C378.118896,533.496704 378.891022,536.304260 379.828033,539.801819 
M597.016296,483.222687 
	C597.121582,481.701538 597.226868,480.180389 597.909668,478.171783 
	C602.777161,474.468445 605.599976,475.140442 608.269592,480.553101 
	C608.598145,481.219360 609.341248,481.681152 610.253418,482.813507 
	C623.769531,490.971375 639.041016,489.927246 650.844299,479.863617 
	C653.663513,475.947327 656.482666,472.031036 659.925720,467.802917 
	C660.894226,464.868835 661.862793,461.934753 663.063965,458.317688 
	C663.023315,454.545898 662.982666,450.774078 663.034241,446.207855 
	C662.042358,439.128204 658.623779,433.260040 653.742859,427.381744 
	C648.539978,423.310822 643.337097,419.239868 638.224854,415.239807 
	C633.726135,419.962921 630.208679,423.655762 626.048035,427.689972 
	C619.313904,432.411224 611.672485,435.427338 603.641296,434.361816 
	C593.769714,433.052094 584.115784,430.102448 574.020325,427.122864 
	C571.864624,422.505585 572.541199,419.407227 576.022156,417.955780 
	C579.491882,416.508942 582.073181,418.149414 584.081360,422.765564 
	C584.546631,423.835022 585.574097,424.927551 586.621338,425.436615 
	C607.881714,435.771301 625.543518,426.002594 636.551453,408.518250 
	C641.550781,395.642090 636.499329,381.137817 623.964050,373.041107 
	C620.987427,390.271729 611.811890,402.224426 593.953186,407.548767 
	C590.181152,407.996063 586.409973,408.451202 582.636658,408.887512 
	C580.563782,409.127136 578.248413,408.820984 576.456848,409.653168 
	C570.966980,412.203308 568.397217,411.459625 566.500488,405.283203 
	C568.602844,399.050964 572.136169,398.084503 577.091125,402.302795 
	C577.915894,403.004913 578.997070,403.641022 580.041687,403.814392 
	C596.630371,406.567169 616.032776,392.714325 619.560547,375.349213 
	C621.078125,367.472931 619.679749,360.210236 615.316711,353.423035 
	C607.379456,341.075836 587.587402,333.381836 569.753357,336.239899 
	C578.773682,348.888977 578.821167,362.241150 572.786865,376.587921 
	C572.065857,377.888458 571.405762,379.227417 570.613220,380.482819 
	C567.311401,385.713104 564.276550,391.160400 560.463928,395.991547 
	C559.249756,397.530090 555.597656,398.390717 553.674988,397.742004 
	C552.046021,397.192383 550.121582,393.769318 550.479309,392.070892 
	C550.886658,390.136597 553.512695,388.456940 555.484741,387.126373 
	C557.339111,385.875183 559.597656,385.222870 562.180786,383.933624 
	C567.929504,376.977722 570.924255,368.907623 572.038452,359.126312 
	C572.536560,348.497101 567.631409,340.192139 560.492065,332.997986 
	C544.316833,316.698456 521.949463,321.512268 513.660217,342.982361 
	C509.593689,353.515137 510.803497,364.479584 510.391296,376.250275 
	C511.620270,375.168915 512.129211,374.824768 512.508606,374.372070 
	C520.489319,364.848175 530.487366,359.257202 543.047119,358.544647 
	C544.140442,358.482605 545.315552,358.098511 546.264038,357.542328 
	C551.580933,354.424530 553.443359,354.852814 556.548584,360.813324 
	C554.706665,367.576355 551.441467,368.713348 546.014221,364.743500 
	C544.863647,363.901917 542.998657,363.530579 541.544495,363.689575 
	C528.530457,365.112244 519.069275,371.943359 512.061462,383.731628 
	C511.659393,391.832733 511.257324,399.933868 510.632996,408.946259 
	C510.707275,416.296570 510.781525,423.646851 510.623230,431.911163 
	C510.623230,439.797028 510.623230,447.682922 510.623230,456.543762 
	C511.828674,455.273193 512.361206,454.743896 512.858276,454.183197 
	C526.468140,438.830902 544.364563,434.237427 563.298767,441.243134 
	C565.415466,442.026367 567.616882,443.656342 569.626282,443.444489 
	C574.876404,442.891022 577.000549,445.203888 577.071045,450.675415 
	C575.022400,452.069183 572.863831,454.680267 570.956726,454.507935 
	C569.119629,454.341919 567.546265,451.296021 565.849670,449.522491 
	C564.885620,448.514771 564.083069,447.180847 562.908142,446.572571 
	C546.435608,438.044312 523.094849,445.265320 513.208862,462.091766 
	C512.424866,465.730682 511.640900,469.369629 510.608917,473.881073 
	C510.683472,476.593262 510.757996,479.305450 510.580505,482.883118 
	C510.658569,485.572906 510.736603,488.262695 510.521729,491.667297 
	C510.617065,493.769043 510.712433,495.870758 510.516357,498.829803 
	C510.611481,501.217072 510.706635,503.604370 510.512146,506.885681 
	C510.512146,512.795349 510.512146,518.704956 510.512146,525.442993 
	C511.986359,524.093262 512.829407,523.390747 513.593628,522.611084 
	C522.424255,513.602051 533.104370,508.480835 545.657837,507.178040 
	C547.776001,506.958191 549.850281,506.315460 552.701660,505.910187 
	C557.955017,503.006897 563.208435,500.103577 569.062439,496.965179 
	C571.156494,494.352722 573.250549,491.740265 575.882812,488.672424 
	C577.800232,485.604034 579.643433,482.528442 576.933533,478.242950 
	C578.558167,476.261322 580.212585,472.656494 581.800293,472.685638 
	C584.074585,472.727356 586.300049,475.423126 588.405640,477.748810 
	C587.133179,479.777405 585.860718,481.805969 583.928101,483.990234 
	C582.182068,487.291992 580.436035,490.593719 578.143372,494.239624 
	C576.283997,496.419495 574.424683,498.599335 571.959595,501.020477 
	C569.258118,502.991791 566.556641,504.963074 563.273743,506.922180 
	C562.822083,507.208801 562.370422,507.495392 561.271912,507.913971 
	C560.921875,508.131531 560.571777,508.349091 560.221741,508.566650 
	C560.790222,508.777191 561.358643,508.987732 562.317871,509.808167 
	C565.522705,510.857849 568.852539,513.009705 571.899048,512.663940 
	C575.312195,512.276550 577.609985,512.873718 579.965515,515.882324 
	C580.701904,519.382751 579.972229,522.326721 576.248718,523.468079 
	C572.559814,524.598816 570.477478,522.601929 568.868103,519.357910 
	C568.155151,517.920776 566.429810,516.771729 564.909424,515.982361 
	C549.103882,507.776367 527.503906,513.048706 515.122437,528.213318 
	C513.665955,531.476013 512.209534,534.738770 510.468170,538.867249 
	C510.558289,541.579163 510.648407,544.291077 510.449554,547.853699 
	C510.517670,549.641235 510.585754,551.428711 510.356110,554.068726 
	C510.525024,563.563354 510.693939,573.057983 511.512024,582.737488 
	C524.221924,567.320312 545.703186,561.120544 564.470337,571.902466 
	C565.518799,572.504761 567.435730,571.529114 568.559387,572.080688 
	C570.844421,573.202087 573.788391,574.413025 574.768188,576.415344 
	C576.131897,579.202148 574.352783,582.030273 571.179077,582.957397 
	C568.136658,583.846252 565.728333,582.729248 564.106934,579.792847 
	C563.222778,578.191589 562.127747,576.306580 560.620300,575.510132 
	C540.890747,565.085876 520.724792,575.305603 511.137573,591.802429 
	C510.587219,592.749390 510.373413,594.028015 510.389557,595.146790 
	C510.528900,604.798645 510.331085,614.481384 511.055756,624.092957 
	C512.227234,639.629150 520.614929,650.417358 535.373413,654.917664 
	C557.870667,661.777588 577.593506,655.293091 594.908630,640.181824 
	C595.710815,639.481689 596.217102,638.442444 597.026062,637.335632 
	C583.537476,635.843323 574.833191,628.282349 568.371033,617.421814 
	C567.357544,615.718445 565.788696,614.103210 564.090332,613.103516 
	C561.137695,611.365540 558.979919,608.990784 560.819824,605.951721 
	C561.975037,604.043579 565.186218,602.210938 567.344666,602.351074 
	C570.653625,602.565979 571.909180,605.507568 571.539001,609.049561 
	C571.350464,610.853088 571.598816,613.008240 572.451111,614.565918 
	C578.856445,626.272949 588.489319,633.111084 602.187256,632.924500 
	C616.320679,632.731995 627.609558,626.934509 635.133789,614.742188 
	C639.300354,607.990784 640.378357,600.609863 638.615845,592.584473 
	C617.689758,598.280396 602.548767,591.038147 591.980774,572.969421 
	C591.335632,571.866394 589.306274,571.584839 588.630676,570.485107 
	C587.301697,568.321777 585.451965,565.747070 585.679260,563.533691 
	C586.005188,560.359497 589.079834,559.200928 592.247131,559.922607 
	C595.571289,560.679993 596.418884,563.097351 596.445801,566.322754 
	C596.465027,568.616211 596.763916,571.247803 597.909973,573.139587 
	C612.326050,596.936340 640.591553,592.451050 654.161438,580.252991 
	C663.469971,571.885559 666.467346,559.961975 661.930481,549.089783 
	C660.388367,550.091187 658.905334,551.116943 657.363525,552.045044 
	C647.923340,557.727722 637.873108,559.851624 627.287720,556.091125 
	C622.020935,554.220032 617.110107,551.346985 611.722168,548.319092 
	C608.044128,546.551453 604.366028,544.783813 600.482605,542.365112 
	C599.839355,539.961975 599.196167,537.558777 598.994873,534.651184 
	C603.511597,530.753967 606.037781,531.089783 609.159729,536.773865 
	C608.963501,540.761047 611.595459,542.619385 615.070374,544.711670 
	C617.314941,546.110046 619.475098,547.672119 621.817810,548.880127 
	C636.596252,556.500488 653.738342,553.667236 664.594177,541.740356 
	C666.353516,539.161926 668.112915,536.583496 670.384155,533.496216 
	C671.716248,530.042480 673.048340,526.588745 674.809998,522.512878 
	C675.273682,519.030029 675.737427,515.547119 676.578308,511.377899 
	C676.483154,509.259705 676.388000,507.141541 676.512695,504.277252 
	C676.217041,502.186371 675.921387,500.095520 675.671570,497.277588 
	C675.056885,495.181030 674.442200,493.084473 673.717468,490.266846 
	C670.568237,484.037659 667.419006,477.808472 664.625488,472.282867 
	C657.125977,478.697693 650.552124,484.320679 643.213684,490.016418 
	C634.308899,494.032379 625.218567,493.987457 615.362000,490.933014 
	C611.965454,489.539825 608.592102,487.120148 605.165771,487.042603 
	C601.749878,486.965302 599.101318,486.810150 597.016296,483.222687 
M426.222595,549.253357 
	C424.182220,553.141907 423.141022,557.740723 417.331604,558.389954 
	C416.258087,558.509888 414.457794,563.051575 415.117279,564.705261 
	C415.787231,566.385071 419.381866,568.207947 421.146149,567.767395 
	C422.853241,567.341125 425.368866,563.583923 424.889069,562.215759 
	C423.518707,558.308167 425.342529,555.655090 426.779327,552.639038 
	C427.329926,551.483276 427.720184,550.251160 429.008209,548.708008 
	C432.933441,548.846985 436.902802,549.428833 440.099121,546.136597 
	C444.893127,541.198730 448.011475,541.031982 454.393677,544.405701 
	C455.632172,545.060425 458.097809,544.742737 459.195068,543.867554 
	C460.000641,543.225037 460.151215,540.283630 459.414001,539.546326 
	C458.420746,538.553040 456.223816,538.215332 454.667023,538.442627 
	C450.914490,538.990479 447.233765,540.030212 443.500580,540.876892 
	C443.010132,539.218628 442.847565,538.588928 442.638641,537.975037 
	C440.473938,531.614197 435.375397,528.846985 429.973724,531.093872 
	C424.459412,533.387573 422.912048,539.261719 426.094025,545.301086 
	C426.642120,546.341309 426.594269,547.695496 426.222595,549.253357 
M443.094208,416.717590 
	C442.240356,417.807312 441.513458,419.034027 440.510925,419.963318 
	C435.888306,424.248383 434.777832,430.019989 437.665131,435.348236 
	C440.503967,440.587036 446.482727,443.032257 452.110138,441.256195 
	C457.867859,439.438995 461.477631,434.136749 460.922760,428.311493 
	C460.372040,422.529175 455.868683,417.962708 449.925385,417.054230 
	C448.532684,416.841339 447.180725,416.361877 445.786316,415.254211 
	C444.881592,412.758362 443.900635,410.286987 443.090515,407.760803 
	C441.959259,404.233215 443.517303,402.085236 447.028320,402.730103 
	C456.299042,404.432983 465.523743,406.386627 474.552124,408.197388 
	C474.744171,409.030182 474.852356,409.346619 474.886719,409.670898 
	C475.396942,414.488861 478.191742,417.326538 482.853027,417.816254 
	C487.145081,418.267151 490.352386,415.994904 491.697510,411.973663 
	C493.032440,407.982971 491.969910,404.272339 488.242126,401.957123 
	C484.184906,399.437347 480.464417,400.245422 476.895050,403.434357 
	C475.808136,404.405487 473.643555,404.826569 472.137848,404.561279 
	C464.947571,403.294342 457.838562,401.565796 450.648132,400.299652 
	C447.852814,399.807434 446.374359,399.148163 446.082886,395.839569 
	C445.679230,391.256866 441.863068,388.524170 437.398529,388.669739 
	C433.254913,388.804840 429.772827,391.865845 429.108185,395.957611 
	C428.436615,400.091980 431.017487,404.964478 435.291656,405.429382 
	C439.495850,405.886719 440.255676,408.356720 441.191162,411.403168 
	C441.673218,412.972900 442.457336,414.449829 443.094208,416.717590 
M376.313751,429.229462 
	C372.052399,431.737427 367.791077,434.245422 363.560577,436.735229 
	C355.735077,429.052948 347.684967,427.806366 340.935852,433.151337 
	C334.777649,438.028381 333.365326,446.699799 337.652283,453.312500 
	C341.801025,459.712006 350.198395,462.079407 357.001068,458.767334 
	C364.178040,455.273041 367.149292,447.478943 364.239014,439.412018 
	C368.466888,436.937073 372.726471,434.443542 377.678101,431.847687 
	C382.631409,428.883026 387.584717,425.918365 392.656433,422.882843 
	C393.835052,424.070526 394.806244,425.207611 395.934174,426.158813 
	C401.322632,430.703003 408.687378,431.023926 414.377380,427.024170 
	C420.227844,422.911652 422.473145,415.473633 419.841278,408.923981 
	C417.305939,402.614502 410.427887,398.535004 403.891205,399.463623 
	C396.701965,400.485016 390.065887,406.008820 391.012329,412.890289 
	C392.110016,420.871613 387.176941,422.693848 382.378052,425.591431 
	C380.543457,426.699158 378.785980,427.934631 376.313751,429.229462 
M390.559540,374.715332 
	C392.416626,372.165833 394.273712,369.616333 395.848938,367.453796 
	C408.954315,375.609985 416.638428,373.952515 427.295135,362.019257 
	C431.183197,363.171387 435.258026,364.079834 439.066772,365.638428 
	C440.869781,366.376221 442.714905,368.084778 443.579498,369.829834 
	C445.710419,374.130829 449.685211,376.153534 453.681335,374.326569 
	C457.778839,372.453278 459.337799,367.653931 457.083527,363.852692 
	C454.773102,359.956757 450.342529,359.076019 446.301300,361.607666 
	C445.141876,362.334045 443.634583,363.472473 442.571777,363.220337 
	C437.629303,362.047974 432.786896,360.453857 428.048889,359.052155 
	C428.854767,347.295624 425.624329,340.594391 417.653595,336.782104 
	C410.546143,333.382751 401.898987,334.626312 396.452209,340.277069 
	C388.718414,348.300537 389.241211,357.144104 394.750244,366.052002 
	C392.310883,368.715454 390.074341,371.157471 387.211853,373.922302 
	C383.917511,376.846313 381.642761,381.041107 375.557343,378.450989 
	C371.716248,376.816132 366.773254,380.785919 365.024658,385.037079 
	C363.183960,389.512360 364.499603,394.597198 368.280273,397.619263 
	C372.075317,400.652802 377.311127,400.831451 381.274078,398.062592 
	C385.114075,395.379761 387.531738,390.213715 385.422577,386.305176 
	C383.149048,382.092072 384.796936,379.969543 387.678925,377.584412 
	C388.551727,376.862122 389.188416,375.854492 390.559540,374.715332 
M260.121216,554.778442 
	C264.779816,567.180542 269.438446,579.582581 274.168823,592.703369 
	C283.153168,611.318726 294.283600,628.519409 308.234558,644.644958 
	C321.814362,658.452026 335.394165,672.259033 349.252655,686.668213 
	C379.383606,714.216553 388.085419,748.692810 380.854218,788.547485 
	C383.765930,788.547485 385.553528,788.546143 387.341125,788.547607 
	C435.133606,788.587280 482.926086,788.628296 530.718567,788.666626 
	C541.709167,788.675476 552.700317,788.743103 563.690186,788.655762 
	C571.092896,788.596985 575.205688,785.780090 577.136475,779.800354 
	C580.307068,769.981201 573.924988,761.025085 563.611694,761.009521 
	C515.319641,760.936646 467.027557,760.913025 418.735504,760.872070 
	C416.800812,760.870422 414.866089,760.871887 412.044281,760.871887 
	C412.044281,752.945923 412.066498,745.658447 412.039978,738.371094 
	C411.969482,718.984985 404.160400,702.633850 392.005768,687.256714 
	C378.362732,672.163818 364.719727,657.070923 350.835876,641.346375 
	C337.347443,626.324158 324.942963,610.492249 314.578186,592.353088 
	C309.195709,579.848328 303.813232,567.343567 298.294891,554.034912 
	C296.273834,545.015198 294.252747,535.995422 292.264435,526.064941 
	C289.317505,500.256714 289.897400,474.564240 295.035522,448.254761 
	C299.175049,430.836395 304.067322,413.652252 312.315674,397.663788 
	C315.945099,390.628479 320.198364,383.915009 324.724945,376.694275 
	C340.365906,353.511414 359.363708,333.590332 382.638824,317.991089 
	C390.663086,312.613190 399.229614,308.044434 408.263580,303.085022 
	C410.579803,302.217987 412.942413,301.457062 415.205078,300.467590 
	C439.473877,289.854523 464.698547,282.732574 491.185425,281.163666 
	C525.830444,279.111511 558.513428,287.096191 589.752258,301.808044 
	C608.123474,310.459930 624.457275,322.116089 640.302551,335.600861 
	C641.680420,337.039154 642.981812,338.561096 644.447693,339.903259 
	C666.387878,359.991486 682.615479,384.098633 693.670288,411.559906 
	C698.293945,423.045532 701.320435,435.174011 705.040405,447.811798 
	C708.572388,463.991699 709.946777,480.409088 709.004211,496.886414 
	C708.256653,509.955200 706.347656,522.957520 704.506897,536.591919 
	C701.836853,545.999451 699.166809,555.406921 696.131836,565.396240 
	C688.447693,580.274475 680.763550,595.152771 672.538330,610.425171 
	C666.455688,617.833984 660.534241,625.382751 654.250122,632.616516 
	C646.232727,641.845398 637.922302,650.819885 629.174622,660.228577 
	C619.648682,671.122681 610.800598,682.469849 604.869141,696.648865 
	C597.798523,712.005432 594.207886,728.316711 594.204102,745.041870 
	C594.198242,770.499451 595.264404,795.962219 596.199341,821.410950 
	C596.391663,826.647583 598.007935,831.831970 598.967834,837.040405 
	C614.411255,811.643860 635.889832,799.742188 664.775452,800.874268 
	C675.089050,801.278442 685.447083,801.361206 695.754761,800.907593 
	C710.214661,800.271362 724.123718,797.048462 736.534058,789.184021 
	C748.996399,781.286621 753.706848,770.595764 748.938049,756.796326 
	C743.392090,740.748169 745.646240,728.117798 760.634338,718.834290 
	C762.152710,717.893799 763.381531,716.403564 764.560181,715.012146 
	C768.213135,710.699585 770.863953,705.992798 769.898010,699.280396 
	C765.851013,693.537109 761.804016,687.793823 757.496338,681.680664 
	C763.377136,678.364563 772.033386,677.441833 775.653320,668.423340 
	C777.721619,659.764038 774.026794,652.697327 769.012695,646.285950 
	C760.913452,635.929443 760.825745,625.339661 767.705627,613.909180 
	C771.999512,609.250793 777.349060,607.321289 783.644226,606.925110 
	C792.757507,606.351562 800.804382,603.209167 806.315674,595.359131 
	C809.244263,591.187805 810.094910,586.589661 807.155945,582.320251 
	C803.472778,576.969604 799.154663,572.056091 794.963196,566.280518 
	C788.199951,557.531128 781.436707,548.781738 774.474426,539.417664 
	C763.612671,524.694336 752.695801,510.011200 741.911682,495.231232 
	C736.276611,487.508270 736.688110,485.683594 743.195068,479.213379 
	C745.816406,476.606903 749.201660,473.377777 749.540405,470.148865 
	C750.306946,462.842499 749.395447,455.360107 749.222412,447.043579 
	C747.817505,437.541412 747.004761,427.905884 744.900146,418.561279 
	C737.673645,386.474243 723.653809,357.579590 702.643494,331.409576 
	C691.367188,317.083832 678.574890,304.247864 664.319031,292.907013 
	C616.924194,255.203186 562.780396,235.534897 502.399933,233.239075 
	C484.579559,232.561508 466.896423,235.094299 449.487244,239.025650 
	C406.238312,248.792130 367.999603,268.326355 334.377441,298.235748 
	C324.526489,308.749634 314.165344,318.838074 304.952911,329.884460 
	C293.271942,343.890900 283.339325,359.184753 275.436218,376.436127 
	C272.824921,382.322449 269.989838,388.121063 267.643280,394.111084 
	C259.825439,414.067444 254.243454,434.605286 252.028152,456.849884 
	C248.808517,480.413300 250.476654,503.810791 254.543274,528.000732 
	C256.404907,536.671204 258.266541,545.341736 260.121216,554.778442 
M462.081421,912.588867 
	C484.614532,918.837158 504.897003,909.785767 515.212891,888.596130 
	C516.644165,885.656250 518.303223,884.911072 521.310974,884.981873 
	C529.302124,885.169922 537.301025,885.096069 545.296082,885.028198 
	C553.155090,884.961487 558.279846,880.160400 558.310181,872.986389 
	C558.340576,865.796509 553.257629,860.865723 545.418152,860.857849 
	C498.777313,860.811157 452.136414,860.811462 405.495605,860.856750 
	C397.844391,860.864197 392.328583,866.118286 392.419006,872.959229 
	C392.511475,879.955200 397.898560,884.961731 405.571472,885.027466 
	C413.733032,885.097351 421.898987,885.179077 430.056030,884.975464 
	C433.002808,884.901978 434.373260,885.909180 435.629364,888.572388 
	C440.970978,899.897705 449.453278,907.983276 462.081421,912.588867 
M384.972260,818.485962 
	C380.915039,823.041870 379.777527,828.121887 382.609222,833.677429 
	C385.306213,838.968628 389.835785,841.068970 395.719269,841.062866 
	C448.878906,841.007202 502.038666,841.036377 555.198364,841.002075 
	C557.002808,841.000916 558.895203,840.867554 560.595398,840.323425 
	C566.714050,838.364868 570.688843,831.949463 569.718384,825.938171 
	C568.586487,818.926758 563.018250,814.349426 555.063354,814.341675 
	C502.070312,814.290222 449.076935,814.243591 396.084839,814.468872 
	C392.552155,814.483887 389.029022,816.746826 384.972260,818.485962 
M119.881653,402.879456 
	C148.686050,410.260895 177.478714,417.688568 206.301147,424.998932 
	C216.557449,427.600281 225.233841,422.665558 227.630081,413.163879 
	C229.795914,404.575836 224.201263,395.933136 214.475296,393.421265 
	C186.489166,386.193359 158.475204,379.072357 130.451111,371.992767 
	C121.216286,369.659790 112.985519,373.628998 110.001495,381.580627 
	C106.808250,390.089752 110.271675,398.036621 119.881653,402.879456 
M788.148193,395.520264 
	C777.689514,398.818573 772.634033,406.964874 775.261597,416.285614 
	C777.583496,424.522217 786.400696,429.807343 794.869385,427.457489 
	C823.665833,419.467041 852.428101,411.348724 881.120667,402.995117 
	C884.260864,402.080872 887.430542,399.820068 889.602356,397.326569 
	C894.217224,392.028198 894.210754,383.915863 890.349365,378.273224 
	C886.492126,372.636597 879.168518,369.933807 872.334167,371.841736 
	C844.510071,379.609222 816.703064,387.437714 788.148193,395.520264 
M297.434662,216.062210 
	C287.146454,204.042755 277.005829,191.892532 266.514587,180.053009 
	C260.245758,172.978516 250.560547,172.505615 243.670609,178.325516 
	C236.884613,184.057617 235.882401,194.034180 241.930206,201.207047 
	C261.038300,223.869873 280.252411,246.445175 299.623596,268.883301 
	C306.130035,276.419891 315.849396,277.017609 322.738373,270.967590 
	C330.074402,264.524963 330.708527,255.469589 324.071381,247.464294 
	C315.462433,237.080734 306.646576,226.868744 297.434662,216.062210 
M705.118958,222.618652 
	C697.796082,231.680710 690.324951,240.628052 683.197571,249.841354 
	C677.569214,257.116852 678.825317,267.377747 685.567566,272.692841 
	C692.724365,278.334747 702.426270,277.587036 708.368774,270.346497 
	C727.163879,247.446228 745.845581,224.451035 764.369751,201.331207 
	C770.566528,193.597031 769.275391,183.292938 762.049194,177.786240 
	C754.570679,172.087296 745.018372,173.604111 738.682495,181.418167 
	C727.675354,194.993103 716.626465,208.534164 705.118958,222.618652 
M516.077515,139.500000 
	C516.076538,127.839027 516.118042,116.177849 516.061707,104.517143 
	C516.013306,94.500008 509.338623,87.381165 499.925171,87.163948 
	C490.923218,86.956215 483.810333,94.457047 483.791626,104.448494 
	C483.737122,133.600815 483.737732,162.753342 483.791656,191.905670 
	C483.810547,202.112579 490.411926,209.041641 499.863068,209.053894 
	C509.297119,209.066147 516.033081,202.030228 516.061096,191.974808 
	C516.108948,174.816650 516.076416,157.658279 516.077515,139.500000 
M469.652466,617.769653 
	C467.183441,616.425476 464.714447,615.081238 462.041473,613.625977 
	C462.041473,608.667542 462.041473,603.556458 462.041473,598.485840 
	C472.958405,595.482971 478.564148,588.044617 476.637238,579.274658 
	C474.982697,571.744446 468.396301,566.351990 460.938568,566.421692 
	C453.418427,566.492065 447.099854,571.839783 445.462067,579.520325 
	C443.979675,586.472168 448.009155,593.705811 454.961823,596.986572 
	C456.386353,597.658752 458.407959,598.969482 458.530518,600.153931 
	C458.966309,604.365356 458.700684,608.649353 458.700684,612.642395 
	C454.875702,613.483521 451.516998,613.828064 448.476898,614.999390 
	C445.322998,616.214539 442.477631,618.230469 439.445038,619.925354 
	C437.436523,618.159668 435.439880,616.404175 433.442963,614.649109 
	C433.068268,614.319763 432.502808,614.062195 432.349976,613.650940 
	C431.695526,611.889771 430.525116,610.014832 430.709015,608.306946 
	C431.192719,603.814697 428.471100,599.761658 424.117798,599.392822 
	C420.301025,599.069519 416.543762,602.382751 416.325897,606.263977 
	C416.085693,610.542908 419.824768,613.957153 424.400879,613.868042 
	C425.876923,613.839233 427.711060,613.941223 428.781097,614.764038 
	C431.911469,617.171204 434.739380,619.971619 437.710632,622.640259 
	C436.987976,624.128418 436.357361,625.287781 435.848022,626.498169 
	C432.258636,635.028198 432.925018,643.177307 438.882355,650.346497 
	C444.928955,657.623047 452.869873,660.399597 462.123657,657.905457 
	C470.666901,655.602844 476.235992,649.965027 478.298126,641.294617 
	C480.517212,631.964111 477.451630,624.307495 469.652466,617.769653 
M401.241302,580.407410 
	C400.533661,574.011414 397.268555,570.138306 391.834595,569.249207 
	C387.249207,568.498840 382.029907,571.525208 380.172394,576.011414 
	C378.108856,580.995239 379.515839,585.906677 384.549835,589.488464 
	C388.767731,592.489624 385.308655,596.138245 385.636566,599.420837 
	C385.746613,600.522461 383.681396,602.406494 382.230469,602.993042 
	C377.860596,604.759766 375.469025,607.797058 375.395111,612.404724 
	C375.327118,616.645508 378.658020,620.388428 382.874542,621.154358 
	C387.515228,621.997375 391.129700,620.362610 393.134827,616.064270 
	C395.123596,611.800964 394.376251,607.669800 390.501770,604.994568 
	C387.965210,603.243103 387.528320,601.384094 387.960541,598.759521 
	C388.360321,596.331848 388.663910,593.888306 388.995575,591.552246 
	C397.205597,590.241211 399.846069,587.938049 401.241302,580.407410 
M339.793884,567.247925 
	C339.020660,575.030823 344.020538,580.481506 350.927460,579.385376 
	C355.808868,578.610718 359.405121,574.671692 359.628571,569.854797 
	C359.849335,565.095093 356.546356,560.888611 351.675720,559.726562 
	C346.619781,558.520447 342.760864,560.754761 339.793884,567.247925 
M463.564636,336.874847 
	C465.789978,330.245667 463.097961,324.699524 457.198090,324.022125 
	C452.714478,323.507355 449.474152,325.398102 447.779266,329.641876 
	C446.239471,333.497284 447.727295,337.782745 451.284454,340.005249 
	C455.151581,342.421509 459.176178,341.568665 463.564636,336.874847 
M470.525055,376.131744 
	C468.672882,381.905518 470.460022,386.140320 475.228271,387.065247 
	C478.900757,387.777649 481.950684,386.586456 483.502533,383.141907 
	C485.092316,379.613220 484.491516,376.169891 481.103912,373.915527 
	C477.377991,371.436066 473.887848,372.145020 470.525055,376.131744 
M474.872101,347.960785 
	C474.449402,351.677277 476.034058,354.516663 479.680237,354.744080 
	C481.694366,354.869720 484.520233,353.412170 485.772308,351.755463 
	C487.864838,348.986694 486.780945,345.847809 483.838928,344.093567 
	C479.876129,341.730591 476.900757,343.260529 474.872101,347.960785 
M483.306030,563.577271 
	C486.663361,562.813843 488.991028,560.727966 487.965912,557.329712 
	C487.400604,555.455688 484.910065,553.047363 483.172272,552.950745 
	C481.378448,552.851074 478.430420,554.889221 477.781708,556.652344 
	C476.386017,560.445618 478.762665,562.794006 483.306030,563.577271 
M411.925995,633.223145 
	C415.519989,632.321167 417.008942,629.686523 415.825928,626.537292 
	C415.175018,624.804565 412.545319,622.616577 410.968109,622.736938 
	C409.040680,622.883850 406.182373,624.919495 405.670715,626.697754 
	C404.485229,630.817932 406.960602,633.137573 411.925995,633.223145 
M369.347046,545.552795 
	C370.770721,542.058167 369.897705,539.313232 366.328217,537.981995 
	C363.263428,536.839111 360.401642,537.974365 359.619598,541.076782 
	C359.161896,542.892517 359.921539,545.809204 361.239777,547.106750 
	C363.684296,549.512817 366.645844,548.864258 369.347046,545.552795 
M479.641968,604.359985 
	C478.194244,608.214294 479.445374,611.232117 483.380310,611.819214 
	C485.248535,612.097961 488.486908,610.517883 489.236023,608.909546 
	C489.982452,607.307190 489.059845,603.961792 487.676636,602.544006 
	C485.183929,599.988953 482.248657,601.003235 479.641968,604.359985 
M367.885376,602.665222 
	C366.995270,599.340027 364.832520,597.162109 361.451843,598.187012 
	C359.676544,598.725220 357.319092,601.096252 357.289398,602.678284 
	C357.253296,604.605713 358.961121,607.613708 360.670349,608.316528 
	C364.733032,609.987122 367.120209,607.513916 367.885376,602.665222 
M366.857025,474.642731 
	C365.997253,471.290527 363.842987,469.099304 360.445282,470.156525 
	C358.670349,470.708801 356.307465,473.147949 356.323914,474.712708 
	C356.343842,476.613586 358.208099,479.510590 359.955566,480.169128 
	C363.734406,481.593079 366.144623,479.320892 366.857025,474.642731 
M429.478516,498.189819 
	C431.747498,497.924347 434.371857,498.249695 436.155212,497.176941 
	C437.266357,496.508453 437.919220,493.365662 437.306488,491.987335 
	C436.577911,490.348389 434.375519,488.641541 432.617493,488.404480 
	C431.122101,488.202850 428.298798,489.757385 427.945679,491.049438 
	C427.398254,493.052399 428.452118,495.492920 429.478516,498.189819 
M489.206482,441.835510 
	C489.118927,439.572479 489.634308,437.009949 488.715302,435.160004 
	C488.173370,434.069153 485.196381,433.413116 483.598724,433.784363 
	C480.360077,434.536896 479.301575,437.223907 480.254028,440.351471 
	C481.276794,443.709747 484.604584,444.431702 489.206482,441.835510 
M428.059540,578.723572 
	C427.210449,580.434387 425.707245,582.167480 425.764587,583.847351 
	C425.797546,584.811462 428.453369,586.515991 429.761719,586.371948 
	C431.056702,586.229431 432.912506,584.321533 433.161407,582.942322 
	C433.703064,579.940979 431.728638,578.464600 428.059540,578.723572 
M467.081390,443.630493 
	C467.473602,446.837585 469.082947,448.684631 472.380280,447.393341 
	C473.469910,446.966614 474.773682,445.081909 474.639130,444.036224 
	C474.466827,442.697052 472.906311,440.491119 472.004333,440.520386 
	C470.392181,440.572693 468.825226,442.018127 467.081390,443.630493 
z"/>
<path fill="#1F89DF" opacity="1.000000" stroke="none" 
	d="
M769.820679,700.013977 
	C770.863953,705.992798 768.213135,710.699585 764.560181,715.012146 
	C763.381531,716.403564 762.152710,717.893799 760.634338,718.834290 
	C745.646240,728.117798 743.392090,740.748169 748.938049,756.796326 
	C753.706848,770.595764 748.996399,781.286621 736.534058,789.184021 
	C724.123718,797.048462 710.214661,800.271362 695.754761,800.907593 
	C685.447083,801.361206 675.089050,801.278442 664.775452,800.874268 
	C635.889832,799.742188 614.411255,811.643860 598.967834,837.040405 
	C598.007935,831.831970 596.391663,826.647583 596.199341,821.410950 
	C595.264404,795.962219 594.198242,770.499451 594.204102,745.041870 
	C594.207886,728.316711 597.798523,712.005432 605.510803,696.330444 
	C618.252991,696.340210 630.353149,696.683472 642.454163,696.992676 
	C656.217712,697.344238 669.982056,697.664734 683.746094,698.000183 
	C697.343750,698.331604 710.941223,698.676514 724.539185,698.994202 
	C739.632751,699.346741 754.726807,699.675110 769.820679,700.013977 
z"/>
<path fill="#62E7FF" opacity="1.000000" stroke="none" 
	d="
M639.998047,335.010742 
	C624.457275,322.116089 608.123474,310.459930 589.752258,301.808044 
	C558.513428,287.096191 525.830444,279.111511 491.185425,281.163666 
	C464.698547,282.732574 439.473877,289.854523 415.205078,300.467590 
	C412.942413,301.457062 410.579803,302.217987 407.472626,303.050781 
	C403.791504,302.344482 400.914520,301.158112 398.009033,301.083557 
	C378.743774,300.589294 359.471222,300.381836 340.204987,299.918060 
	C338.459839,299.876068 336.742371,298.683838 335.012054,298.025787 
	C367.999603,268.326355 406.238312,248.792130 449.487244,239.025650 
	C466.896423,235.094299 484.579559,232.561508 502.399933,233.239075 
	C562.780396,235.534897 616.924194,255.203186 664.319031,292.907013 
	C678.574890,304.247864 691.367188,317.083832 702.289917,331.712646 
	C686.378052,331.677124 670.819824,331.331543 655.261292,331.006470 
	C652.441101,330.947540 649.490295,331.494781 646.828125,330.837402 
	C642.768372,329.834869 640.917603,331.399292 639.998047,335.010742 
z"/>
<path fill="#460367" opacity="1.000000" stroke="none" 
	d="
M612.038208,548.927246 
	C617.110107,551.346985 622.020935,554.220032 627.287720,556.091125 
	C637.873108,559.851624 647.923340,557.727722 657.363525,552.045044 
	C658.905334,551.116943 660.388367,550.091187 661.930481,549.089783 
	C666.467346,559.961975 663.469971,571.885559 654.161438,580.252991 
	C640.591553,592.451050 612.326050,596.936340 597.909973,573.139587 
	C596.763916,571.247803 596.465027,568.616211 596.445801,566.322754 
	C596.418884,563.097351 595.571289,560.679993 592.247131,559.922607 
	C589.079834,559.200928 586.005188,560.359497 585.679260,563.533691 
	C585.451965,565.747070 587.301697,568.321777 588.630676,570.485107 
	C589.306274,571.584839 591.335632,571.866394 591.980774,572.969421 
	C602.548767,591.038147 617.689758,598.280396 638.615845,592.584473 
	C640.378357,600.609863 639.300354,607.990784 635.133789,614.742188 
	C627.609558,626.934509 616.320679,632.731995 602.187256,632.924500 
	C588.489319,633.111084 578.856445,626.272949 572.451111,614.565918 
	C571.598816,613.008240 571.350464,610.853088 571.539001,609.049561 
	C571.909180,605.507568 570.653625,602.565979 567.344666,602.351074 
	C565.186218,602.210938 561.975037,604.043579 560.819824,605.951721 
	C558.979919,608.990784 561.137695,611.365540 564.090332,613.103516 
	C565.788696,614.103210 567.357544,615.718445 568.371033,617.421814 
	C574.833191,628.282349 583.537476,635.843323 597.026062,637.335632 
	C596.217102,638.442444 595.710815,639.481689 594.908630,640.181824 
	C577.593506,655.293091 557.870667,661.777588 535.373413,654.917664 
	C520.614929,650.417358 512.227234,639.629150 511.055756,624.092957 
	C510.331085,614.481384 510.528900,604.798645 510.389557,595.146790 
	C510.373413,594.028015 510.587219,592.749390 511.137573,591.802429 
	C520.724792,575.305603 540.890747,565.085876 560.620300,575.510132 
	C562.127747,576.306580 563.222778,578.191589 564.106934,579.792847 
	C565.728333,582.729248 568.136658,583.846252 571.179077,582.957397 
	C574.352783,582.030273 576.131897,579.202148 574.768188,576.415344 
	C573.788391,574.413025 570.844421,573.202087 568.559387,572.080688 
	C567.435730,571.529114 565.518799,572.504761 564.470337,571.902466 
	C545.703186,561.120544 524.221924,567.320312 511.252350,582.212219 
	C511.058929,572.468750 511.125183,563.250549 511.624695,554.021423 
	C525.293518,553.341003 538.522522,552.462463 551.766113,552.053467 
	C569.368286,551.509888 586.983948,551.408203 604.588013,550.911804 
	C607.088135,550.841309 609.555603,549.617371 612.038208,548.927246 
z"/>
<path fill="#208AE0" opacity="1.000000" stroke="none" 
	d="
M392.202881,687.917480 
	C404.160400,702.633850 411.969482,718.984985 412.039978,738.371094 
	C412.066498,745.658447 412.044281,752.945923 412.044281,760.871887 
	C414.866089,760.871887 416.800812,760.870422 418.735504,760.872070 
	C467.027557,760.913025 515.319641,760.936646 563.611694,761.009521 
	C573.924988,761.025085 580.307068,769.981201 577.136475,779.800354 
	C575.205688,785.780090 571.092896,788.596985 563.690186,788.655762 
	C552.700317,788.743103 541.709167,788.675476 530.718567,788.666626 
	C482.926086,788.628296 435.133606,788.587280 387.341125,788.547607 
	C385.553528,788.546143 383.765930,788.547485 380.854218,788.547485 
	C388.085419,748.692810 379.383606,714.216553 349.207336,685.966064 
	C349.816193,684.851685 350.467377,684.085754 351.124939,684.080261 
	C360.927521,683.997864 370.731293,683.978821 380.533752,684.063782 
	C381.588043,684.072876 382.620148,684.871765 383.689819,685.220764 
	C386.519501,686.144165 389.364166,687.021667 392.202881,687.917480 
z"/>
<path fill="#59DDFF" opacity="1.000000" stroke="none" 
	d="
M640.150269,335.305786 
	C640.917603,331.399292 642.768372,329.834869 646.828125,330.837402 
	C649.490295,331.494781 652.441101,330.947540 655.261292,331.006470 
	C670.819824,331.331543 686.378052,331.677124 702.392151,332.026672 
	C723.653809,357.579590 737.673645,386.474243 744.900146,418.561279 
	C747.004761,427.905884 747.817505,437.541412 748.711792,447.512543 
	C733.825134,447.657745 719.449158,447.333954 705.073120,447.010193 
	C701.320435,435.174011 698.293945,423.045532 693.670288,411.559906 
	C682.615479,384.098633 666.387878,359.991486 644.447693,339.903259 
	C642.981812,338.561096 641.680420,337.039154 640.150269,335.305786 
z"/>
<path fill="#2FA1ED" opacity="1.000000" stroke="none" 
	d="
M767.107727,614.250671 
	C760.825745,625.339661 760.913452,635.929443 769.012695,646.285950 
	C774.026794,652.697327 777.721619,659.764038 774.996704,668.714417 
	C773.181702,668.454834 771.488159,668.217163 770.952820,667.302002 
	C767.809082,661.927185 762.802917,661.997925 757.523376,661.948975 
	C734.267151,661.733398 711.012634,661.333008 687.757507,660.998047 
	C687.092224,660.988464 686.427307,660.957520 685.762024,660.945129 
	C667.087402,660.597412 648.412842,660.250732 629.738220,659.903992 
	C637.922302,650.819885 646.232727,641.845398 654.250122,632.616516 
	C660.534241,625.382751 666.455688,617.833984 673.226379,610.209106 
	C676.700439,609.662109 679.491333,609.011230 682.271606,609.053833 
	C696.394287,609.270386 710.512817,609.759521 724.635498,609.969360 
	C735.131104,610.125305 745.654053,609.603149 756.116089,610.215332 
	C759.799316,610.430847 765.111450,608.536865 767.107727,614.250671 
z"/>
<path fill="#1F89DF" opacity="1.000000" stroke="none" 
	d="
M461.721252,912.425110 
	C449.453278,907.983276 440.970978,899.897705 435.629364,888.572388 
	C434.373260,885.909180 433.002808,884.901978 430.056030,884.975464 
	C421.898987,885.179077 413.733032,885.097351 405.571472,885.027466 
	C397.898560,884.961731 392.511475,879.955200 392.419006,872.959229 
	C392.328583,866.118286 397.844391,860.864197 405.495605,860.856750 
	C452.136414,860.811462 498.777313,860.811157 545.418152,860.857849 
	C553.257629,860.865723 558.340576,865.796509 558.310181,872.986389 
	C558.279846,880.160400 553.155090,884.961487 545.296082,885.028198 
	C537.301025,885.096069 529.302124,885.169922 521.310974,884.981873 
	C518.303223,884.911072 516.644165,885.656250 515.212891,888.596130 
	C504.897003,909.785767 484.614532,918.837158 461.721252,912.425110 
z"/>
<path fill="#2795E6" opacity="1.000000" stroke="none" 
	d="
M629.456421,660.066284 
	C648.412842,660.250732 667.087402,660.597412 685.762024,660.945129 
	C686.427307,660.957520 687.092224,660.988464 687.757507,660.998047 
	C711.012634,661.333008 734.267151,661.733398 757.523376,661.948975 
	C762.802917,661.997925 767.809082,661.927185 770.952820,667.302002 
	C771.488159,668.217163 773.181702,668.454834 774.716919,669.018799 
	C772.033386,677.441833 763.377136,678.364563 757.496338,681.680664 
	C761.804016,687.793823 765.851013,693.537109 769.859375,699.647217 
	C754.726807,699.675110 739.632751,699.346741 724.539185,698.994202 
	C710.941223,698.676514 697.343750,698.331604 683.746094,698.000183 
	C669.982056,697.664734 656.217712,697.344238 642.454163,696.992676 
	C630.353149,696.683472 618.252991,696.340210 605.701172,696.016541 
	C610.800598,682.469849 619.648682,671.122681 629.456421,660.066284 
z"/>
<path fill="#36AFF4" opacity="1.000000" stroke="none" 
	d="
M767.406677,614.079956 
	C765.111450,608.536865 759.799316,610.430847 756.116089,610.215332 
	C745.654053,609.603149 735.131104,610.125305 724.635498,609.969360 
	C710.512817,609.759521 696.394287,609.270386 682.271606,609.053833 
	C679.491333,609.011230 676.700439,609.662109 673.496887,610.012085 
	C680.763550,595.152771 688.447693,580.274475 696.821533,565.159241 
	C703.459167,565.280151 709.402649,565.782532 715.355957,565.966797 
	C729.123596,566.393127 742.894531,566.792542 756.667114,566.962830 
	C769.479553,567.121277 782.295898,566.969177 795.110535,566.953857 
	C799.154663,572.056091 803.472778,576.969604 807.155945,582.320251 
	C810.094910,586.589661 809.244263,591.187805 806.315674,595.359131 
	C800.804382,603.209167 792.757507,606.351562 783.644226,606.925110 
	C777.349060,607.321289 771.999512,609.250793 767.406677,614.079956 
z"/>
<path fill="#228AE0" opacity="1.000000" stroke="none" 
	d="
M385.236877,818.225098 
	C389.029022,816.746826 392.552155,814.483887 396.084839,814.468872 
	C449.076935,814.243591 502.070312,814.290222 555.063354,814.341675 
	C563.018250,814.349426 568.586487,818.926758 569.718384,825.938171 
	C570.688843,831.949463 566.714050,838.364868 560.595398,840.323425 
	C558.895203,840.867554 557.002808,841.000916 555.198364,841.002075 
	C502.038666,841.036377 448.878906,841.007202 395.719269,841.062866 
	C389.835785,841.068970 385.306213,838.968628 382.609222,833.677429 
	C379.777527,828.121887 380.915039,823.041870 385.236877,818.225098 
z"/>
<path fill="#5DE1FF" opacity="1.000000" stroke="none" 
	d="
M334.694763,298.130768 
	C336.742371,298.683838 338.459839,299.876068 340.204987,299.918060 
	C359.471222,300.381836 378.743774,300.589294 398.009033,301.083557 
	C400.914520,301.158112 403.791504,302.344482 407.115051,303.061279 
	C399.229614,308.044434 390.663086,312.613190 382.638824,317.991089 
	C359.363708,333.590332 340.365906,353.511414 324.009949,376.849060 
	C307.516418,376.665527 291.737915,376.327179 275.959412,375.988861 
	C283.339325,359.184753 293.271942,343.890900 304.952911,329.884460 
	C314.165344,318.838074 324.526489,308.749634 334.694763,298.130768 
z"/>
<path fill="#4CCFFF" opacity="1.000000" stroke="none" 
	d="
M705.056763,447.411011 
	C719.449158,447.333954 733.825134,447.657745 748.683777,447.965393 
	C749.395447,455.360107 750.306946,462.842499 749.540405,470.148865 
	C749.201660,473.377777 745.816406,476.606903 743.195068,479.213379 
	C736.688110,485.683594 736.276611,487.508270 741.911682,495.231232 
	C752.695801,510.011200 763.612671,524.694336 774.183716,539.718262 
	C751.176392,534.177795 727.860413,538.589661 704.954346,535.989380 
	C706.347656,522.957520 708.256653,509.955200 709.004211,496.886414 
	C709.946777,480.409088 708.572388,463.991699 705.056763,447.411011 
z"/>
<path fill="#55DAFF" opacity="1.000000" stroke="none" 
	d="
M119.522659,402.741394 
	C110.271675,398.036621 106.808250,390.089752 110.001495,381.580627 
	C112.985519,373.628998 121.216286,369.659790 130.451111,371.992767 
	C158.475204,379.072357 186.489166,386.193359 214.475296,393.421265 
	C224.201263,395.933136 229.795914,404.575836 227.630081,413.163879 
	C225.233841,422.665558 216.557449,427.600281 206.301147,424.998932 
	C177.478714,417.688568 148.686050,410.260895 119.522659,402.741394 
z"/>
<path fill="#55DAFF" opacity="1.000000" stroke="none" 
	d="
M788.518982,395.382019 
	C816.703064,387.437714 844.510071,379.609222 872.334167,371.841736 
	C879.168518,369.933807 886.492126,372.636597 890.349365,378.273224 
	C894.210754,383.915863 894.217224,392.028198 889.602356,397.326569 
	C887.430542,399.820068 884.260864,402.080872 881.120667,402.995117 
	C852.428101,411.348724 823.665833,419.467041 794.869385,427.457489 
	C786.400696,429.807343 777.583496,424.522217 775.261597,416.285614 
	C772.634033,406.964874 777.689514,398.818573 788.518982,395.382019 
z"/>
<path fill="#55DAFF" opacity="1.000000" stroke="none" 
	d="
M297.677246,216.322540 
	C306.646576,226.868744 315.462433,237.080734 324.071381,247.464294 
	C330.708527,255.469589 330.074402,264.524963 322.738373,270.967590 
	C315.849396,277.017609 306.130035,276.419891 299.623596,268.883301 
	C280.252411,246.445175 261.038300,223.869873 241.930206,201.207047 
	C235.882401,194.034180 236.884613,184.057617 243.670609,178.325516 
	C250.560547,172.505615 260.245758,172.978516 266.514587,180.053009 
	C277.005829,191.892532 287.146454,204.042755 297.677246,216.322540 
z"/>
<path fill="#55DAFF" opacity="1.000000" stroke="none" 
	d="
M705.357056,222.354034 
	C716.626465,208.534164 727.675354,194.993103 738.682495,181.418167 
	C745.018372,173.604111 754.570679,172.087296 762.049194,177.786240 
	C769.275391,183.292938 770.566528,193.597031 764.369751,201.331207 
	C745.845581,224.451035 727.163879,247.446228 708.368774,270.346497 
	C702.426270,277.587036 692.724365,278.334747 685.567566,272.692841 
	C678.825317,267.377747 677.569214,257.116852 683.197571,249.841354 
	C690.324951,240.628052 697.796082,231.680710 705.357056,222.354034 
z"/>
<path fill="#55DAFF" opacity="1.000000" stroke="none" 
	d="
M516.077576,140.000000 
	C516.076416,157.658279 516.108948,174.816650 516.061096,191.974808 
	C516.033081,202.030228 509.297119,209.066147 499.863068,209.053894 
	C490.411926,209.041641 483.810547,202.112579 483.791656,191.905670 
	C483.737732,162.753342 483.737122,133.600815 483.791626,104.448494 
	C483.810333,94.457047 490.923218,86.956215 499.925171,87.163948 
	C509.338623,87.381165 516.013306,94.500008 516.061707,104.517143 
	C516.118042,116.177849 516.076538,127.839027 516.077576,140.000000 
z"/>
<path fill="#55DAFF" opacity="1.000000" stroke="none" 
	d="
M275.697815,376.212494 
	C291.737915,376.327179 307.516418,376.665527 323.731689,377.029663 
	C320.198364,383.915009 315.945099,390.628479 312.315674,397.663788 
	C304.067322,413.652252 299.175049,430.836395 294.461548,448.630432 
	C283.500336,448.678528 273.112091,448.378021 262.726440,448.006348 
	C259.715820,447.898590 257.932892,448.848816 256.820709,451.987854 
	C256.226349,453.665405 253.794434,454.691895 252.191833,456.012238 
	C254.243454,434.605286 259.825439,414.067444 267.643280,394.111084 
	C269.989838,388.121063 272.824921,382.322449 275.697815,376.212494 
z"/>
<path fill="#4CCFFF" opacity="1.000000" stroke="none" 
	d="
M252.109985,456.431061 
	C253.794434,454.691895 256.226349,453.665405 256.820709,451.987854 
	C257.932892,448.848816 259.715820,447.898590 262.726440,448.006348 
	C273.112091,448.378021 283.500336,448.678528 294.340271,449.009766 
	C289.897400,474.564240 289.317505,500.256714 291.809998,526.485779 
	C279.039062,526.541626 266.704895,523.265991 254.414169,527.131226 
	C250.476654,503.810791 248.808517,480.413300 252.109985,456.431061 
z"/>
<path fill="#480568" opacity="1.000000" stroke="none" 
	d="
M469.958710,617.965698 
	C477.451630,624.307495 480.517212,631.964111 478.298126,641.294617 
	C476.235992,649.965027 470.666901,655.602844 462.123657,657.905457 
	C452.869873,660.399597 444.928955,657.623047 438.882355,650.346497 
	C432.925018,643.177307 432.258636,635.028198 435.848022,626.498169 
	C436.357361,625.287781 436.987976,624.128418 437.710632,622.640259 
	C434.739380,619.971619 431.911469,617.171204 428.781097,614.764038 
	C427.711060,613.941223 425.876923,613.839233 424.400879,613.868042 
	C419.824768,613.957153 416.085693,610.542908 416.325897,606.263977 
	C416.543762,602.382751 420.301025,599.069519 424.117798,599.392822 
	C428.471100,599.761658 431.192719,603.814697 430.709015,608.306946 
	C430.525116,610.014832 431.695526,611.889771 432.349976,613.650940 
	C432.502808,614.062195 433.068268,614.319763 433.442963,614.649109 
	C435.439880,616.404175 437.436523,618.159668 439.445038,619.925354 
	C442.477631,618.230469 445.322998,616.214539 448.476898,614.999390 
	C451.516998,613.828064 454.875702,613.483521 458.700684,612.642395 
	C458.700684,608.649353 458.966309,604.365356 458.530518,600.153931 
	C458.407959,598.969482 456.386353,597.658752 454.961823,596.986572 
	C448.009155,593.705811 443.979675,586.472168 445.462067,579.520325 
	C447.099854,571.839783 453.418427,566.492065 460.938568,566.421692 
	C468.396301,566.351990 474.982697,571.744446 476.637238,579.274658 
	C478.564148,588.044617 472.958405,595.482971 462.041473,598.485840 
	C462.041473,603.556458 462.041473,608.667542 462.041473,613.625977 
	C464.714447,615.081238 467.183441,616.425476 469.958710,617.965698 
z"/>
<path fill="#40BFFB" opacity="1.000000" stroke="none" 
	d="
M704.730591,536.290649 
	C727.860413,538.589661 751.176392,534.177795 774.283325,540.025574 
	C781.436707,548.781738 788.199951,557.531128 795.036865,566.617188 
	C782.295898,566.969177 769.479553,567.121277 756.667114,566.962830 
	C742.894531,566.792542 729.123596,566.393127 715.355957,565.966797 
	C709.402649,565.782532 703.459167,565.280151 697.004028,564.868347 
	C699.166809,555.406921 701.836853,545.999451 704.730591,536.290649 
z"/>
<path fill="#FF3E05" opacity="1.000000" stroke="none" 
	d="
M577.362915,450.004059 
	C577.000549,445.203888 574.876404,442.891022 569.626282,443.444489 
	C567.616882,443.656342 565.415466,442.026367 563.298767,441.243134 
	C544.364563,434.237427 526.468140,438.830902 512.858276,454.183197 
	C512.361206,454.743896 511.828674,455.273193 510.623230,456.543762 
	C510.623230,447.682922 510.623230,439.797028 511.172913,431.446838 
	C513.664062,430.655914 515.599487,430.089294 517.547852,430.040527 
	C533.560425,429.639526 549.576660,429.382233 565.588501,428.957794 
	C568.522522,428.880035 571.441711,428.241425 574.367737,427.861664 
	C584.115784,430.102448 593.769714,433.052094 603.641296,434.361816 
	C611.672485,435.427338 619.313904,432.411224 626.615967,427.911072 
	C628.753235,428.421021 630.331055,428.996124 631.890442,428.949951 
	C639.247375,428.732147 646.599304,428.344238 653.953003,428.016968 
	C658.623779,433.260040 662.042358,439.128204 662.534424,446.603790 
	C649.021912,447.663696 636.015076,448.496735 622.995056,448.947479 
	C607.790344,449.473846 592.574158,449.666595 577.362915,450.004059 
z"/>
<path fill="#FF4E02" opacity="1.000000" stroke="none" 
	d="
M574.194031,427.492249 
	C571.441711,428.241425 568.522522,428.880035 565.588501,428.957794 
	C549.576660,429.382233 533.560425,429.639526 517.547852,430.040527 
	C515.599487,430.089294 513.664062,430.655914 511.289185,430.989868 
	C510.781525,423.646851 510.707275,416.296570 511.219727,408.480103 
	C529.942627,407.358276 548.078796,406.702667 566.215027,406.047058 
	C568.397217,411.459625 570.966980,412.203308 576.456848,409.653168 
	C578.248413,408.820984 580.563782,409.127136 582.636658,408.887512 
	C586.409973,408.451202 590.181152,407.996063 594.610962,407.874451 
	C604.295776,408.374786 613.322815,408.547943 622.349854,408.724701 
	C626.901794,408.813843 631.453552,408.909424 636.005432,409.002106 
	C625.543518,426.002594 607.881714,435.771301 586.621338,425.436615 
	C585.574097,424.927551 584.546631,423.835022 584.081360,422.765564 
	C582.073181,418.149414 579.491882,416.508942 576.022156,417.955780 
	C572.541199,419.407227 571.864624,422.505585 574.194031,427.492249 
z"/>
<path fill="#FE6203" opacity="1.000000" stroke="none" 
	d="
M566.357788,405.665131 
	C548.078796,406.702667 529.942627,407.358276 511.330841,408.024445 
	C511.257324,399.933868 511.659393,391.832733 512.558533,383.852325 
	C514.622314,384.315125 516.200317,384.990265 517.753540,384.937347 
	C522.541809,384.774323 527.316833,384.257721 532.103943,384.017090 
	C539.877930,383.626373 547.655273,383.239471 555.435852,383.089417 
	C557.508118,383.049438 559.597046,383.877502 561.678345,384.307037 
	C559.597656,385.222870 557.339111,385.875183 555.484741,387.126373 
	C553.512695,388.456940 550.886658,390.136597 550.479309,392.070892 
	C550.121582,393.769318 552.046021,397.192383 553.674988,397.742004 
	C555.597656,398.390717 559.249756,397.530090 560.463928,395.991547 
	C564.276550,391.160400 567.311401,385.713104 570.613220,380.482819 
	C571.405762,379.227417 572.065857,377.888458 573.378418,376.358582 
	C576.728577,376.345428 579.490173,376.778107 582.245422,376.740631 
	C594.521851,376.573517 606.796509,376.271912 619.071777,376.018921 
	C616.032776,392.714325 596.630371,406.567169 580.041687,403.814392 
	C578.997070,403.641022 577.915894,403.004913 577.091125,402.302795 
	C572.136169,398.084503 568.602844,399.050964 566.357788,405.665131 
z"/>
<path fill="#31A5EE" opacity="1.000000" stroke="none" 
	d="
M314.734558,593.019775 
	C324.942963,610.492249 337.347443,626.324158 350.509277,641.670044 
	C337.851166,641.772217 325.519531,641.442383 313.188202,641.452820 
	C311.456696,641.454285 309.726593,643.121765 307.995819,644.018127 
	C294.283600,628.519409 283.153168,611.318726 274.540771,592.349426 
	C288.186676,592.336914 301.460602,592.678345 314.734558,593.019775 
z"/>
<path fill="#2998E8" opacity="1.000000" stroke="none" 
	d="
M308.115173,644.331543 
	C309.726593,643.121765 311.456696,641.454285 313.188202,641.452820 
	C325.519531,641.442383 337.851166,641.772217 350.629700,641.985901 
	C364.719727,657.070923 378.362732,672.163818 392.104309,687.587097 
	C389.364166,687.021667 386.519501,686.144165 383.689819,685.220764 
	C382.620148,684.871765 381.588043,684.072876 380.533752,684.063782 
	C370.731293,683.978821 360.927521,683.997864 351.124939,684.080261 
	C350.467377,684.085754 349.816193,684.851685 349.067993,685.665039 
	C335.394165,672.259033 321.814362,658.452026 308.115173,644.331543 
z"/>
<path fill="#FD7B04" opacity="1.000000" stroke="none" 
	d="
M556.643494,360.116943 
	C553.443359,354.852814 551.580933,354.424530 546.264038,357.542328 
	C545.315552,358.098511 544.140442,358.482605 543.047119,358.544647 
	C530.487366,359.257202 520.489319,364.848175 512.508606,374.372070 
	C512.129211,374.824768 511.620270,375.168915 510.391296,376.250275 
	C510.803497,364.479584 509.593689,353.515137 513.660217,342.982361 
	C521.949463,321.512268 544.316833,316.698456 560.492065,332.997986 
	C567.631409,340.192139 572.536560,348.497101 571.491699,359.563660 
	C566.177795,360.039642 561.410645,360.078278 556.643494,360.116943 
z"/>
<path fill="#FE3404" opacity="1.000000" stroke="none" 
	d="
M577.216980,450.339722 
	C592.574158,449.666595 607.790344,449.473846 622.995056,448.947479 
	C636.015076,448.496735 649.021912,447.663696 662.488281,447.001007 
	C662.982666,450.774078 663.023315,454.545898 662.529541,458.658875 
	C659.705200,458.728027 657.402161,458.141876 655.127563,458.236725 
	C643.379822,458.726624 631.644348,459.525208 619.895081,459.958649 
	C606.620178,460.448425 593.335693,460.684357 580.054443,460.994873 
	C564.775879,461.352112 549.496033,461.659637 534.217651,462.026337 
	C533.073425,462.053802 531.928345,462.583191 530.797424,462.537537 
	C525.144348,462.309387 519.495911,461.967163 513.845825,461.665039 
	C523.094849,445.265320 546.435608,438.044312 562.908142,446.572571 
	C564.083069,447.180847 564.885620,448.514771 565.849670,449.522491 
	C567.546265,451.296021 569.119629,454.341919 570.956726,454.507935 
	C572.863831,454.680267 575.022400,452.069183 577.216980,450.339722 
z"/>
<path fill="#9B1052" opacity="1.000000" stroke="none" 
	d="
M676.201111,512.064270 
	C675.737427,515.547119 675.273682,519.030029 674.105713,522.785278 
	C668.282837,523.369446 663.168274,523.812683 658.045044,523.970520 
	C634.654846,524.690857 611.261292,525.302856 587.870850,526.016846 
	C580.750488,526.234253 573.639343,526.788513 566.518555,526.952759 
	C549.580505,527.343506 532.639099,527.593323 515.699097,527.900085 
	C527.503906,513.048706 549.103882,507.776367 564.909424,515.982361 
	C566.429810,516.771729 568.155151,517.920776 568.868103,519.357910 
	C570.477478,522.601929 572.559814,524.598816 576.248718,523.468079 
	C579.972229,522.326721 580.701904,519.382751 580.387573,515.452942 
	C586.752869,514.683411 592.693054,514.269104 598.640137,514.020203 
	C608.072693,513.625427 617.507812,513.251892 626.945618,513.029846 
	C643.362549,512.643494 659.782471,512.379578 676.201111,512.064270 
z"/>
<path fill="#8C0E5B" opacity="1.000000" stroke="none" 
	d="
M515.410767,528.056702 
	C532.639099,527.593323 549.580505,527.343506 566.518555,526.952759 
	C573.639343,526.788513 580.750488,526.234253 587.870850,526.016846 
	C611.261292,525.302856 634.654846,524.690857 658.045044,523.970520 
	C663.168274,523.812683 668.282837,523.369446 673.890869,523.096313 
	C673.048340,526.588745 671.716248,530.042480 669.744690,533.742249 
	C667.974304,533.767700 666.836670,533.325806 665.713501,533.359924 
	C648.974976,533.868835 632.237244,534.412537 615.502502,535.032654 
	C613.379028,535.111267 611.273132,535.667480 609.159119,536.002502 
	C606.037781,531.089783 603.511597,530.753967 598.279419,534.861511 
	C592.790466,535.380371 588.020935,535.783081 583.242859,535.977600 
	C573.489014,536.374756 563.732056,536.715454 553.973633,536.977966 
	C539.568054,537.365540 525.160034,537.664673 510.753052,538.001465 
	C512.209534,534.738770 513.665955,531.476013 515.410767,528.056702 
z"/>
<path fill="#FD7503" opacity="1.000000" stroke="none" 
	d="
M619.316162,375.684082 
	C606.796509,376.271912 594.521851,376.573517 582.245422,376.740631 
	C579.490173,376.778107 576.728577,376.345428 573.575439,376.070496 
	C578.821167,362.241150 578.773682,348.888977 569.753357,336.239899 
	C587.587402,333.381836 607.379456,341.075836 615.316711,353.423035 
	C619.679749,360.210236 621.078125,367.472931 619.316162,375.684082 
z"/>
<path fill="#36AFF4" opacity="1.000000" stroke="none" 
	d="
M314.656372,592.686401 
	C301.460602,592.678345 288.186676,592.336914 274.504883,591.990112 
	C269.438446,579.582581 264.779816,567.180542 260.583832,554.391602 
	C273.507904,554.282776 285.969330,554.560791 298.430786,554.838806 
	C303.813232,567.343567 309.195709,579.848328 314.656372,592.686401 
z"/>
<path fill="#FD7503" opacity="1.000000" stroke="none" 
	d="
M387.837769,373.599487 
	C390.074341,371.157471 392.310883,368.715454 394.750244,366.052002 
	C389.241211,357.144104 388.718414,348.300537 396.452209,340.277069 
	C401.898987,334.626312 410.546143,333.382751 417.653595,336.782104 
	C425.624329,340.594391 428.854767,347.295624 428.048889,359.052155 
	C432.786896,360.453857 437.629303,362.047974 442.571777,363.220337 
	C443.634583,363.472473 445.141876,362.334045 446.301300,361.607666 
	C450.342529,359.076019 454.773102,359.956757 457.083527,363.852692 
	C459.337799,367.653931 457.778839,372.453278 453.681335,374.326569 
	C449.685211,376.153534 445.710419,374.130829 443.579498,369.829834 
	C442.714905,368.084778 440.869781,366.376221 439.066772,365.638428 
	C435.258026,364.079834 431.183197,363.171387 427.295135,362.019257 
	C416.638428,373.952515 408.954315,375.609985 395.848938,367.453796 
	C394.273712,369.616333 392.416626,372.165833 389.910095,374.808838 
	C388.786346,374.468079 388.312073,374.033783 387.837769,373.599487 
z"/>
<path fill="#F72B0B" opacity="1.000000" stroke="none" 
	d="
M513.527344,461.878418 
	C519.495911,461.967163 525.144348,462.309387 530.797424,462.537537 
	C531.928345,462.583191 533.073425,462.053802 534.217651,462.026337 
	C549.496033,461.659637 564.775879,461.352112 580.054443,460.994873 
	C593.335693,460.684357 606.620178,460.448425 619.895081,459.958649 
	C631.644348,459.525208 643.379822,458.726624 655.127563,458.236725 
	C657.402161,458.141876 659.705200,458.728027 662.413208,459.000366 
	C661.862793,461.934753 660.894226,464.868835 659.126038,467.925598 
	C648.727112,468.364441 639.127991,468.681763 629.528687,468.996490 
	C609.166016,469.664215 588.805542,470.408264 568.440063,470.972961 
	C552.027893,471.428070 535.608704,471.626892 519.195068,472.037628 
	C516.409363,472.107269 513.635986,472.672363 510.856934,473.008545 
	C511.640900,469.369629 512.424866,465.730682 513.527344,461.878418 
z"/>
<path fill="#EB2515" opacity="1.000000" stroke="none" 
	d="
M510.732910,473.444824 
	C513.635986,472.672363 516.409363,472.107269 519.195068,472.037628 
	C535.608704,471.626892 552.027893,471.428070 568.440063,470.972961 
	C588.805542,470.408264 609.166016,469.664215 629.528687,468.996490 
	C639.127991,468.681763 648.727112,468.364441 658.814087,468.081482 
	C656.482666,472.031036 653.663513,475.947327 650.046265,479.945557 
	C640.597717,480.017365 631.937561,479.762177 623.300415,480.097961 
	C618.810120,480.272552 614.360352,481.490845 609.892273,482.237671 
	C609.341248,481.681152 608.598145,481.219360 608.269592,480.553101 
	C605.599976,475.140442 602.777161,474.468445 597.391724,478.042328 
	C594.097900,477.603790 591.322144,477.294739 588.546326,476.985657 
	C586.300049,475.423126 584.074585,472.727356 581.800293,472.685638 
	C580.212585,472.656494 578.558167,476.261322 576.453125,478.621765 
	C573.534607,479.333282 571.102295,479.899841 568.657410,479.960785 
	C552.315979,480.368195 535.970825,480.627106 519.629639,481.040100 
	C516.690918,481.114319 513.764587,481.679260 510.832581,482.017639 
	C510.757996,479.305450 510.683472,476.593262 510.732910,473.444824 
z"/>
<path fill="#40BFFB" opacity="1.000000" stroke="none" 
	d="
M298.362854,554.436890 
	C285.969330,554.560791 273.507904,554.282776 260.587341,554.008484 
	C258.266541,545.341736 256.404907,536.671204 254.478729,527.565979 
	C266.704895,523.265991 279.039062,526.541626 291.793610,526.941162 
	C294.252747,535.995422 296.273834,545.015198 298.362854,554.436890 
z"/>
<path fill="#FE6E03" opacity="1.000000" stroke="none" 
	d="
M556.596069,360.465149 
	C561.410645,360.078278 566.177795,360.039642 571.403137,360.003052 
	C570.924255,368.907623 567.929504,376.977722 561.929565,384.120331 
	C559.597046,383.877502 557.508118,383.049438 555.435852,383.089417 
	C547.655273,383.239471 539.877930,383.626373 532.103943,384.017090 
	C527.316833,384.257721 522.541809,384.774323 517.753540,384.937347 
	C516.200317,384.990265 514.622314,384.315125 512.820007,383.559753 
	C519.069275,371.943359 528.530457,365.112244 541.544495,363.689575 
	C542.998657,363.530579 544.863647,363.901917 546.014221,364.743500 
	C551.441467,368.713348 554.706665,367.576355 556.596069,360.465149 
z"/>
<path fill="#FF4E02" opacity="1.000000" stroke="none" 
	d="
M376.993317,429.111847 
	C378.785980,427.934631 380.543457,426.699158 382.378052,425.591431 
	C387.176941,422.693848 392.110016,420.871613 391.012329,412.890289 
	C390.065887,406.008820 396.701965,400.485016 403.891205,399.463623 
	C410.427887,398.535004 417.305939,402.614502 419.841278,408.923981 
	C422.473145,415.473633 420.227844,422.911652 414.377380,427.024170 
	C408.687378,431.023926 401.322632,430.703003 395.934174,426.158813 
	C394.806244,425.207611 393.835052,424.070526 392.656433,422.882843 
	C387.584717,425.918365 382.631409,428.883026 377.334717,431.544067 
	C376.992004,430.530914 376.992676,429.821381 376.993317,429.111847 
z"/>
<path fill="#AC1246" opacity="1.000000" stroke="none" 
	d="
M676.389709,511.721069 
	C659.782471,512.379578 643.362549,512.643494 626.945618,513.029846 
	C617.507812,513.251892 608.072693,513.625427 598.640137,514.020203 
	C592.693054,514.269104 586.752869,514.683411 580.335083,515.039307 
	C577.609985,512.873718 575.312195,512.276550 571.899048,512.663940 
	C568.852539,513.009705 565.522705,510.857849 562.138794,509.148987 
	C561.946106,508.253876 561.932434,508.017944 561.918701,507.781982 
	C562.370422,507.495392 562.822083,507.208801 563.958435,507.097534 
	C566.428162,507.515289 568.223267,508.025024 569.996643,507.958130 
	C585.699768,507.365753 601.393860,506.477936 617.100708,506.055542 
	C636.826416,505.525085 656.561646,505.351166 676.292786,505.023346 
	C676.388000,507.141541 676.483154,509.259705 676.389709,511.721069 
z"/>
<path fill="#FF3E05" opacity="1.000000" stroke="none" 
	d="
M376.653534,429.170654 
	C376.992676,429.821381 376.992004,430.530914 376.988708,431.595245 
	C372.726471,434.443542 368.466888,436.937073 364.239014,439.412018 
	C367.149292,447.478943 364.178040,455.273041 357.001068,458.767334 
	C350.198395,462.079407 341.801025,459.712006 337.652283,453.312500 
	C333.365326,446.699799 334.777649,438.028381 340.935852,433.151337 
	C347.684967,427.806366 355.735077,429.052948 363.560577,436.735229 
	C367.791077,434.245422 372.052399,431.737427 376.653534,429.170654 
z"/>
<path fill="#760861" opacity="1.000000" stroke="none" 
	d="
M510.610596,538.434326 
	C525.160034,537.664673 539.568054,537.365540 553.973633,536.977966 
	C563.732056,536.715454 573.489014,536.374756 583.242859,535.977600 
	C588.020935,535.783081 592.790466,535.380371 598.058411,535.113770 
	C599.196167,537.558777 599.839355,539.961975 600.182617,542.703979 
	C590.838135,543.692749 581.803162,544.583008 572.747131,544.944092 
	C552.083069,545.768066 531.408691,546.332886 510.738495,547.002991 
	C510.648407,544.291077 510.558289,541.579163 510.610596,538.434326 
z"/>
<path fill="#FE5D05" opacity="1.000000" stroke="none" 
	d="
M636.278442,408.760193 
	C631.453552,408.909424 626.901794,408.813843 622.349854,408.724701 
	C613.322815,408.547943 604.295776,408.374786 595.033569,407.811127 
	C611.811890,402.224426 620.987427,390.271729 623.964050,373.041107 
	C636.499329,381.137817 641.550781,395.642090 636.278442,408.760193 
z"/>
<path fill="#C21A3A" opacity="1.000000" stroke="none" 
	d="
M572.565369,500.779236 
	C574.424683,498.599335 576.283997,496.419495 578.824280,494.128296 
	C580.290283,494.279297 581.081299,494.785370 581.859619,494.766571 
	C590.777771,494.551666 599.705383,494.435822 608.603455,493.869141 
	C611.116089,493.709137 613.540710,492.167236 616.005737,491.259094 
	C625.218567,493.987457 634.308899,494.032379 643.788696,490.328247 
	C646.023438,491.090546 647.692383,491.957428 649.341431,491.921082 
	C657.506287,491.741028 665.666016,491.322418 673.827515,490.987915 
	C674.442200,493.084473 675.056885,495.181030 675.227844,497.640961 
	C661.707581,498.668396 648.635925,499.455109 635.553467,499.967804 
	C615.982849,500.734802 596.405396,501.336395 576.828003,501.908142 
	C575.419250,501.949280 573.986816,501.174591 572.565369,500.779236 
z"/>
<path fill="#9B1052" opacity="1.000000" stroke="none" 
	d="
M377.694519,529.981934 
	C377.063690,528.683350 376.775024,526.830994 375.737823,526.190063 
	C372.643036,524.277588 369.260315,522.828613 365.977509,521.224365 
	C364.947510,520.721008 363.877655,520.299133 362.889008,519.867432 
	C349.906647,533.689514 335.330627,533.539734 325.771667,519.244507 
	C327.352295,518.575256 328.615875,518.081116 329.894958,518.037170 
	C341.214020,517.647766 352.535828,517.338318 363.856842,517.005188 
	C368.742554,519.322083 373.628296,521.638916 378.516724,523.950012 
	C391.172089,512.566833 402.972931,514.343628 407.038269,528.650146 
	C396.956573,529.323547 387.325531,529.652771 377.694519,529.981934 
z"/>
<path fill="#480568" opacity="1.000000" stroke="none" 
	d="
M401.214783,580.778076 
	C399.846069,587.938049 397.205597,590.241211 388.995575,591.552246 
	C388.663910,593.888306 388.360321,596.331848 387.960541,598.759521 
	C387.528320,601.384094 387.965210,603.243103 390.501770,604.994568 
	C394.376251,607.669800 395.123596,611.800964 393.134827,616.064270 
	C391.129700,620.362610 387.515228,621.997375 382.874542,621.154358 
	C378.658020,620.388428 375.327118,616.645508 375.395111,612.404724 
	C375.469025,607.797058 377.860596,604.759766 382.230469,602.993042 
	C383.681396,602.406494 385.746613,600.522461 385.636566,599.420837 
	C385.308655,596.138245 388.767731,592.489624 384.549835,589.488464 
	C379.515839,585.906677 378.108856,580.995239 380.172394,576.011414 
	C382.029907,571.525208 387.249207,568.498840 391.834595,569.249207 
	C397.268555,570.138306 400.533661,574.011414 401.214783,580.778076 
z"/>
<path fill="#5D0466" opacity="1.000000" stroke="none" 
	d="
M510.594025,547.428345 
	C531.408691,546.332886 552.083069,545.768066 572.747131,544.944092 
	C581.803162,544.583008 590.838135,543.692749 600.285278,543.029480 
	C604.366028,544.783813 608.044128,546.551453 611.880188,548.623169 
	C609.555603,549.617371 607.088135,550.841309 604.588013,550.911804 
	C586.983948,551.408203 569.368286,551.509888 551.766113,552.053467 
	C538.522522,552.462463 525.293518,553.341003 511.545898,553.875244 
	C510.962219,553.525391 510.835571,553.350830 510.653870,553.216248 
	C510.585754,551.428711 510.517670,549.641235 510.594025,547.428345 
z"/>
<path fill="#B7143E" opacity="1.000000" stroke="none" 
	d="
M572.262451,500.899841 
	C573.986816,501.174591 575.419250,501.949280 576.828003,501.908142 
	C596.405396,501.336395 615.982849,500.734802 635.553467,499.967804 
	C648.635925,499.455109 661.707581,498.668396 675.204956,498.004486 
	C675.921387,500.095520 676.217041,502.186371 676.402710,504.650299 
	C656.561646,505.351166 636.826416,505.525085 617.100708,506.055542 
	C601.393860,506.477936 585.699768,507.365753 569.996643,507.958130 
	C568.223267,508.025024 566.428162,507.515289 564.249146,507.103638 
	C566.556641,504.963074 569.258118,502.991791 572.262451,500.899841 
z"/>
<path fill="#FE5D05" opacity="1.000000" stroke="none" 
	d="
M443.104919,415.968719 
	C442.457336,414.449829 441.673218,412.972900 441.191162,411.403168 
	C440.255676,408.356720 439.495850,405.886719 435.291656,405.429382 
	C431.017487,404.964478 428.436615,400.091980 429.108185,395.957611 
	C429.772827,391.865845 433.254913,388.804840 437.398529,388.669739 
	C441.863068,388.524170 445.679230,391.256866 446.082886,395.839569 
	C446.374359,399.148163 447.852814,399.807434 450.648132,400.299652 
	C457.838562,401.565796 464.947571,403.294342 472.137848,404.561279 
	C473.643555,404.826569 475.808136,404.405487 476.895050,403.434357 
	C480.464417,400.245422 484.184906,399.437347 488.242126,401.957123 
	C491.969910,404.272339 493.032440,407.982971 491.697510,411.973663 
	C490.352386,415.994904 487.145081,418.267151 482.853027,417.816254 
	C478.191742,417.326538 475.396942,414.488861 474.886719,409.670898 
	C474.852356,409.346619 474.744171,409.030182 474.552124,408.197388 
	C465.523743,406.386627 456.299042,404.432983 447.028320,402.730103 
	C443.517303,402.085236 441.959259,404.233215 443.090515,407.760803 
	C443.900635,410.286987 444.881592,412.758362 445.460022,415.628723 
	C444.457458,415.991730 443.781189,415.980225 443.104919,415.968719 
z"/>
<path fill="#DC2327" opacity="1.000000" stroke="none" 
	d="
M510.706543,482.450378 
	C513.764587,481.679260 516.690918,481.114319 519.629639,481.040100 
	C535.970825,480.627106 552.315979,480.368195 568.657410,479.960785 
	C571.102295,479.899841 573.534607,479.333282 576.395508,479.000977 
	C579.643433,482.528442 577.800232,485.604034 575.212769,488.837463 
	C573.584351,488.782288 572.618042,488.341156 571.668701,488.374878 
	C557.475769,488.879730 543.284058,489.423859 529.094238,490.010895 
	C522.998474,490.263092 516.907715,490.634949 510.814636,490.952454 
	C510.736603,488.262695 510.658569,485.572906 510.706543,482.450378 
z"/>
<path fill="#FF4E02" opacity="1.000000" stroke="none" 
	d="
M443.099548,416.343140 
	C443.781189,415.980225 444.457458,415.991730 445.471863,416.004150 
	C447.180725,416.361877 448.532684,416.841339 449.925385,417.054230 
	C455.868683,417.962708 460.372040,422.529175 460.922760,428.311493 
	C461.477631,434.136749 457.867859,439.438995 452.110138,441.256195 
	C446.482727,443.032257 440.503967,440.587036 437.665131,435.348236 
	C434.777832,430.019989 435.888306,424.248383 440.510925,419.963318 
	C441.513458,419.034027 442.240356,417.807312 443.099548,416.343140 
z"/>
<path fill="#CF1D2F" opacity="1.000000" stroke="none" 
	d="
M510.668213,491.309875 
	C516.907715,490.634949 522.998474,490.263092 529.094238,490.010895 
	C543.284058,489.423859 557.475769,488.879730 571.668701,488.374878 
	C572.618042,488.341156 573.584351,488.782288 574.943604,489.065186 
	C573.250549,491.740265 571.156494,494.352722 568.344971,496.910339 
	C565.522095,496.570404 563.406250,495.977936 561.312866,496.048828 
	C544.475464,496.619446 527.642273,497.315063 510.807770,497.972504 
	C510.712433,495.870758 510.617065,493.769043 510.668213,491.309875 
z"/>
<path fill="#CF1D2F" opacity="1.000000" stroke="none" 
	d="
M390.693909,489.007202 
	C387.475739,497.829132 380.215302,499.220917 373.752258,491.996582 
	C370.771545,493.938568 367.747620,495.908691 363.906403,497.940247 
	C350.359375,498.324402 337.629639,498.647125 324.899872,498.969879 
	C331.875153,484.340851 348.761292,482.852753 362.008942,495.862701 
	C365.626953,493.765564 369.295959,491.638824 373.673523,489.259216 
	C379.819366,489.006592 385.256653,489.006897 390.693909,489.007202 
z"/>
<path fill="#F72B0B" opacity="1.000000" stroke="none" 
	d="
M469.991333,473.981750 
	C471.090271,471.528320 472.189209,469.074890 473.770508,465.544525 
	C468.167816,467.030670 463.697662,468.048218 459.368195,469.488739 
	C458.345123,469.829132 457.468781,471.490845 457.088623,472.719238 
	C455.909698,476.528870 453.425781,478.727203 449.532928,478.829254 
	C445.844482,478.925873 443.132690,476.961060 442.014709,473.409546 
	C440.907654,469.892761 441.847137,466.748901 444.932465,464.592499 
	C448.204926,462.305298 451.362335,462.828491 454.644012,465.024414 
	C455.993683,465.927551 458.084259,466.261658 459.736725,466.053223 
	C462.512665,465.703094 465.308014,464.955780 467.895966,463.891235 
	C469.251068,463.333832 470.772095,461.932037 471.194855,460.589355 
	C472.466309,456.551453 474.834473,454.108521 479.112885,454.558502 
	C482.848175,454.951416 485.176941,457.341827 485.241211,461.240265 
	C485.313507,465.623749 482.829498,468.326172 478.584595,468.367462 
	C474.215271,468.409912 474.556519,472.592285 471.822998,474.666199 
	C470.900970,474.628662 470.446167,474.305206 469.991333,473.981750 
z"/>
<path fill="#760861" opacity="1.000000" stroke="none" 
	d="
M609.159424,536.388184 
	C611.273132,535.667480 613.379028,535.111267 615.502502,535.032654 
	C632.237244,534.412537 648.974976,533.868835 665.713501,533.359924 
	C666.836670,533.325806 667.974304,533.767700 669.488770,533.996704 
	C668.112915,536.583496 666.353516,539.161926 663.892395,541.824829 
	C662.080200,541.627808 660.962830,541.078552 659.860413,541.107117 
	C650.643616,541.345337 641.418640,541.507935 632.218811,542.067871 
	C626.357239,542.424805 620.534363,543.418335 614.694153,544.126343 
	C611.595459,542.619385 608.963501,540.761047 609.159424,536.388184 
z"/>
<path fill="#C21A3A" opacity="1.000000" stroke="none" 
	d="
M324.616577,499.194397 
	C337.629639,498.647125 350.359375,498.324402 363.559753,498.006348 
	C364.549805,501.090851 365.069244,504.170654 365.046661,507.622009 
	C350.526642,508.326508 336.548676,508.659454 322.570709,508.992432 
	C323.158234,505.801270 323.745758,502.610077 324.616577,499.194397 
z"/>
<path fill="#C21A3A" opacity="1.000000" stroke="none" 
	d="
M510.662048,498.401154 
	C527.642273,497.315063 544.475464,496.619446 561.312866,496.048828 
	C563.406250,495.977936 565.522095,496.570404 568.044678,497.027893 
	C563.208435,500.103577 557.955017,503.006897 552.121155,505.558289 
	C549.833435,504.806305 548.117859,504.030884 546.420471,504.069092 
	C537.652588,504.266510 528.886841,504.618256 520.125977,505.034271 
	C517.009766,505.182251 513.909363,505.662842 510.801788,505.991638 
	C510.706635,503.604370 510.611481,501.217072 510.662048,498.401154 
z"/>
<path fill="#FE6E03" opacity="1.000000" stroke="none" 
	d="
M387.524841,373.760895 
	C388.312073,374.033783 388.786346,374.468079 389.596924,374.939941 
	C389.188416,375.854492 388.551727,376.862122 387.678925,377.584412 
	C384.796936,379.969543 383.149048,382.092072 385.422577,386.305176 
	C387.531738,390.213715 385.114075,395.379761 381.274078,398.062592 
	C377.311127,400.831451 372.075317,400.652802 368.280273,397.619263 
	C364.499603,394.597198 363.183960,389.512360 365.024658,385.037079 
	C366.773254,380.785919 371.716248,376.816132 375.557343,378.450989 
	C381.642761,381.041107 383.917511,376.846313 387.524841,373.760895 
z"/>
<path fill="#5D0466" opacity="1.000000" stroke="none" 
	d="
M614.882263,544.419006 
	C620.534363,543.418335 626.357239,542.424805 632.218811,542.067871 
	C641.418640,541.507935 650.643616,541.345337 659.860413,541.107117 
	C660.962830,541.078552 662.080200,541.627808 663.582275,541.952271 
	C653.738342,553.667236 636.596252,556.500488 621.817810,548.880127 
	C619.475098,547.672119 617.314941,546.110046 614.882263,544.419006 
z"/>
<path fill="#AC1246" opacity="1.000000" stroke="none" 
	d="
M322.472412,509.360718 
	C336.548676,508.659454 350.526642,508.326508 364.929138,507.990082 
	C364.932983,510.747467 364.512268,513.508301 363.974182,516.637207 
	C352.535828,517.338318 341.214020,517.647766 329.894958,518.037170 
	C328.615875,518.081116 327.352295,518.575256 325.687744,518.931030 
	C324.320709,515.910706 323.347382,512.819824 322.472412,509.360718 
z"/>
<path fill="#760861" opacity="1.000000" stroke="none" 
	d="
M426.821716,548.904663 
	C426.594269,547.695496 426.642120,546.341309 426.094025,545.301086 
	C422.912048,539.261719 424.459412,533.387573 429.973724,531.093872 
	C435.375397,528.846985 440.473938,531.614197 442.638641,537.975037 
	C442.847565,538.588928 443.010132,539.218628 443.500580,540.876892 
	C447.233765,540.030212 450.914490,538.990479 454.667023,538.442627 
	C456.223816,538.215332 458.420746,538.553040 459.414001,539.546326 
	C460.151215,540.283630 460.000641,543.225037 459.195068,543.867554 
	C458.097809,544.742737 455.632172,545.060425 454.393677,544.405701 
	C448.011475,541.031982 444.893127,541.198730 440.099121,546.136597 
	C436.902802,549.428833 432.933441,548.846985 428.255310,548.844482 
	C427.275482,548.955505 427.048615,548.930115 426.821716,548.904663 
z"/>
<path fill="#AC1246" opacity="1.000000" stroke="none" 
	d="
M457.601624,500.011108 
	C458.250244,501.080414 458.793488,502.233521 459.565765,503.204468 
	C462.846527,507.329193 463.113739,512.567810 460.159912,516.504456 
	C457.197845,520.452087 452.248962,521.821777 447.748322,519.939575 
	C443.342499,518.097046 440.562439,513.200684 441.364014,508.695343 
	C442.289551,503.493347 446.226471,500.164185 451.808319,499.880737 
	C452.469238,499.847137 453.134033,499.889618 454.577881,499.916931 
	C456.106354,499.961700 456.853973,499.986389 457.601624,500.011108 
z"/>
<path fill="#AC1246" opacity="1.000000" stroke="none" 
	d="
M510.656982,506.438660 
	C513.909363,505.662842 517.009766,505.182251 520.125977,505.034271 
	C528.886841,504.618256 537.652588,504.266510 546.420471,504.069092 
	C548.117859,504.030884 549.833435,504.806305 551.742737,505.537231 
	C549.850281,506.315460 547.776001,506.958191 545.657837,507.178040 
	C533.104370,508.480835 522.424255,513.602051 513.593628,522.611084 
	C512.829407,523.390747 511.986359,524.093262 510.512146,525.442993 
	C510.512146,518.704956 510.512146,512.795349 510.656982,506.438660 
z"/>
<path fill="#480568" opacity="1.000000" stroke="none" 
	d="
M339.876404,566.879272 
	C342.760864,560.754761 346.619781,558.520447 351.675720,559.726562 
	C356.546356,560.888611 359.849335,565.095093 359.628571,569.854797 
	C359.405121,574.671692 355.808868,578.610718 350.927460,579.385376 
	C344.020538,580.481506 339.020660,575.030823 339.876404,566.879272 
z"/>
<path fill="#FF3E05" opacity="1.000000" stroke="none" 
	d="
M413.035034,471.012634 
	C413.792053,465.817078 414.549103,460.621552 415.432892,454.556000 
	C411.797485,456.878601 408.741272,458.553345 406.053009,460.690887 
	C405.034943,461.500397 404.616669,463.332611 404.357819,464.776245 
	C403.681335,468.548828 401.518311,470.447510 397.781158,469.968445 
	C394.538116,469.552704 392.755219,467.353546 392.986206,464.056152 
	C393.256012,460.204285 395.658417,458.569672 399.406281,458.730621 
	C405.553925,458.994598 411.695160,454.147919 413.491455,448.340057 
	C414.018463,446.636169 416.162354,444.565460 417.810547,444.321625 
	C419.424896,444.082855 422.144714,445.543365 422.916565,447.021729 
	C423.674164,448.472748 423.189819,452.211975 422.215118,452.651611 
	C417.272705,454.881012 418.302643,459.524872 417.140350,463.258759 
	C416.413940,465.592346 415.820709,467.967438 414.706390,470.663452 
	C413.841705,471.006195 413.438385,471.009399 413.035034,471.012634 
z"/>
<path fill="#DC2327" opacity="1.000000" stroke="none" 
	d="
M673.772461,490.627380 
	C665.666016,491.322418 657.506287,491.741028 649.341431,491.921082 
	C647.692383,491.957428 646.023438,491.090546 644.171021,490.291870 
	C650.552124,484.320679 657.125977,478.697693 664.625488,472.282867 
	C667.419006,477.808472 670.568237,484.037659 673.772461,490.627380 
z"/>
<path fill="#CF1D2F" opacity="1.000000" stroke="none" 
	d="
M615.683838,491.096069 
	C613.540710,492.167236 611.116089,493.709137 608.603455,493.869141 
	C599.705383,494.435822 590.777771,494.551666 581.859619,494.766571 
	C581.081299,494.785370 580.290283,494.279297 579.097595,493.956238 
	C580.436035,490.593719 582.182068,487.291992 584.665039,484.078491 
	C589.276672,484.110718 593.151428,484.054718 597.026184,483.998718 
	C599.101318,486.810150 601.749878,486.965302 605.165771,487.042603 
	C608.592102,487.120148 611.965454,489.539825 615.683838,491.096069 
z"/>
<path fill="#8C0E5B" opacity="1.000000" stroke="none" 
	d="
M377.520660,530.335571 
	C387.325531,529.652771 396.956573,529.323547 407.018585,528.991821 
	C407.175720,531.836670 406.901855,534.683960 405.867065,537.766357 
	C396.625153,538.371521 388.144135,538.741699 379.663147,539.111816 
	C378.891022,536.304260 378.118896,533.496704 377.520660,530.335571 
z"/>
<path fill="#8C0E5B" opacity="1.000000" stroke="none" 
	d="
M481.770538,515.968933 
	C481.365509,519.066345 483.935333,518.948547 485.755096,519.750427 
	C490.228851,521.721802 492.247986,526.443237 490.601593,530.834534 
	C489.048737,534.976501 484.485321,537.257751 480.103363,536.082642 
	C475.570679,534.867065 472.748474,530.364807 474.104401,525.716248 
	C474.660004,523.811279 476.451813,522.291321 477.538910,520.509399 
	C478.456940,519.004639 479.169312,517.374390 480.258484,515.504517 
	C480.953003,515.462524 481.361755,515.715698 481.770538,515.968933 
z"/>
<path fill="#FD7B04" opacity="1.000000" stroke="none" 
	d="
M463.353302,337.183716 
	C459.176178,341.568665 455.151581,342.421509 451.284454,340.005249 
	C447.727295,337.782745 446.239471,333.497284 447.779266,329.641876 
	C449.474152,325.398102 452.714478,323.507355 457.198090,324.022125 
	C463.097961,324.699524 465.789978,330.245667 463.353302,337.183716 
z"/>
<path fill="#CF1D2F" opacity="1.000000" stroke="none" 
	d="
M413.351685,485.036133 
	C417.650635,486.916382 419.838470,490.081665 419.132721,494.862122 
	C418.556427,498.765656 416.064850,501.044861 412.357849,501.876038 
	C408.002533,502.852539 403.516937,500.038147 402.265228,495.781006 
	C400.890930,491.106964 403.448364,486.996460 409.740662,484.941223 
	C411.424286,484.984924 412.387970,485.010529 413.351685,485.036133 
z"/>
<path fill="#DC2327" opacity="1.000000" stroke="none" 
	d="
M610.072876,482.525604 
	C614.360352,481.490845 618.810120,480.272552 623.300415,480.097961 
	C631.937561,479.762177 640.597717,480.017365 649.730835,480.054443 
	C639.041016,489.927246 623.769531,490.971375 610.072876,482.525604 
z"/>
<path fill="#FF4E02" opacity="1.000000" stroke="none" 
	d="
M653.847900,427.699371 
	C646.599304,428.344238 639.247375,428.732147 631.890442,428.949951 
	C630.331055,428.996124 628.753235,428.421021 626.937622,427.740387 
	C630.208679,423.655762 633.726135,419.962921 638.224854,415.239807 
	C643.337097,419.239868 648.539978,423.310822 653.847900,427.699371 
z"/>
<path fill="#FE6E03" opacity="1.000000" stroke="none" 
	d="
M470.739868,375.828491 
	C473.887848,372.145020 477.377991,371.436066 481.103912,373.915527 
	C484.491516,376.169891 485.092316,379.613220 483.502533,383.141907 
	C481.950684,386.586456 478.900757,387.777649 475.228271,387.065247 
	C470.460022,386.140320 468.672882,381.905518 470.739868,375.828491 
z"/>
<path fill="#760861" opacity="1.000000" stroke="none" 
	d="
M379.745605,539.456787 
	C388.144135,538.741699 396.625153,538.371521 405.578003,538.008545 
	C400.544739,549.062195 387.819733,549.928894 379.745605,539.456787 
z"/>
<path fill="#B7143E" opacity="1.000000" stroke="none" 
	d="
M481.833008,515.547485 
	C481.361755,515.715698 480.953003,515.462524 480.322968,515.114807 
	C479.987244,512.530823 479.181763,511.013336 476.368927,510.152344 
	C472.301849,508.907471 470.869507,504.816376 472.585175,501.338104 
	C474.298645,497.864410 478.690155,496.620056 481.934082,498.689178 
	C485.296356,500.833771 485.685333,504.488739 483.609924,508.298157 
	C482.522980,510.293243 482.434753,512.832458 481.833008,515.547485 
z"/>
<path fill="#DC2327" opacity="1.000000" stroke="none" 
	d="
M390.797058,488.632812 
	C385.256653,489.006897 379.819366,489.006592 373.949280,489.013519 
	C374.083252,482.820160 376.950562,479.420654 381.813141,479.184021 
	C386.613342,478.950470 389.971191,482.303589 390.797058,488.632812 
z"/>
<path fill="#480568" opacity="1.000000" stroke="none" 
	d="
M426.522156,549.078979 
	C427.048615,548.930115 427.275482,548.955505 427.842957,549.017395 
	C427.720184,550.251160 427.329926,551.483276 426.779327,552.639038 
	C425.342529,555.655090 423.518707,558.308167 424.889069,562.215759 
	C425.368866,563.583923 422.853241,567.341125 421.146149,567.767395 
	C419.381866,568.207947 415.787231,566.385071 415.117279,564.705261 
	C414.457794,563.051575 416.258087,558.509888 417.331604,558.389954 
	C423.141022,557.740723 424.182220,553.141907 426.522156,549.078979 
z"/>
<path fill="#FD7B04" opacity="1.000000" stroke="none" 
	d="
M474.935699,347.605347 
	C476.900757,343.260529 479.876129,341.730591 483.838928,344.093567 
	C486.780945,345.847809 487.864838,348.986694 485.772308,351.755463 
	C484.520233,353.412170 481.694366,354.869720 479.680237,354.744080 
	C476.034058,354.516663 474.449402,351.677277 474.935699,347.605347 
z"/>
<path fill="#480568" opacity="1.000000" stroke="none" 
	d="
M482.945129,563.589600 
	C478.762665,562.794006 476.386017,560.445618 477.781708,556.652344 
	C478.430420,554.889221 481.378448,552.851074 483.172272,552.950745 
	C484.910065,553.047363 487.400604,555.455688 487.965912,557.329712 
	C488.991028,560.727966 486.663361,562.813843 482.945129,563.589600 
z"/>
<path fill="#480568" opacity="1.000000" stroke="none" 
	d="
M411.578735,633.298218 
	C406.960602,633.137573 404.485229,630.817932 405.670715,626.697754 
	C406.182373,624.919495 409.040680,622.883850 410.968109,622.736938 
	C412.545319,622.616577 415.175018,624.804565 415.825928,626.537292 
	C417.008942,629.686523 415.519989,632.321167 411.578735,633.298218 
z"/>
<path fill="#760861" opacity="1.000000" stroke="none" 
	d="
M369.153687,545.881226 
	C366.645844,548.864258 363.684296,549.512817 361.239777,547.106750 
	C359.921539,545.809204 359.161896,542.892517 359.619598,541.076782 
	C360.401642,537.974365 363.263428,536.839111 366.328217,537.981995 
	C369.897705,539.313232 370.770721,542.058167 369.153687,545.881226 
z"/>
<path fill="#480568" opacity="1.000000" stroke="none" 
	d="
M479.832275,604.026489 
	C482.248657,601.003235 485.183929,599.988953 487.676636,602.544006 
	C489.059845,603.961792 489.982452,607.307190 489.236023,608.909546 
	C488.486908,610.517883 485.248535,612.097961 483.380310,611.819214 
	C479.445374,611.232117 478.194244,608.214294 479.832275,604.026489 
z"/>
<path fill="#480568" opacity="1.000000" stroke="none" 
	d="
M367.901672,603.054504 
	C367.120209,607.513916 364.733032,609.987122 360.670349,608.316528 
	C358.961121,607.613708 357.253296,604.605713 357.289398,602.678284 
	C357.319092,601.096252 359.676544,598.725220 361.451843,598.187012 
	C364.832520,597.162109 366.995270,599.340027 367.901672,603.054504 
z"/>
<path fill="#EB2515" opacity="1.000000" stroke="none" 
	d="
M366.870117,475.027588 
	C366.144623,479.320892 363.734406,481.593079 359.955566,480.169128 
	C358.208099,479.510590 356.343842,476.613586 356.323914,474.712708 
	C356.307465,473.147949 358.670349,470.708801 360.445282,470.156525 
	C363.842987,469.099304 365.997253,471.290527 366.870117,475.027588 
z"/>
<path fill="#CF1D2F" opacity="1.000000" stroke="none" 
	d="
M429.152832,497.968872 
	C428.452118,495.492920 427.398254,493.052399 427.945679,491.049438 
	C428.298798,489.757385 431.122101,488.202850 432.617493,488.404480 
	C434.375519,488.641541 436.577911,490.348389 437.306488,491.987335 
	C437.919220,493.365662 437.266357,496.508453 436.155212,497.176941 
	C434.371857,498.249695 431.747498,497.924347 429.152832,497.968872 
z"/>
<path fill="#FF3E05" opacity="1.000000" stroke="none" 
	d="
M488.971832,442.115295 
	C484.604584,444.431702 481.276794,443.709747 480.254028,440.351471 
	C479.301575,437.223907 480.360077,434.536896 483.598724,433.784363 
	C485.196381,433.413116 488.173370,434.069153 488.715302,435.160004 
	C489.634308,437.009949 489.118927,439.572479 488.971832,442.115295 
z"/>
<path fill="#DC2327" opacity="1.000000" stroke="none" 
	d="
M597.021240,483.610718 
	C593.151428,484.054718 589.276672,484.110718 584.995056,484.000610 
	C585.860718,481.805969 587.133179,479.777405 588.475952,477.367249 
	C591.322144,477.294739 594.097900,477.603790 597.102905,478.286072 
	C597.226868,480.180389 597.121582,481.701538 597.021240,483.610718 
z"/>
<path fill="#480568" opacity="1.000000" stroke="none" 
	d="
M428.392212,578.592590 
	C431.728638,578.464600 433.703064,579.940979 433.161407,582.942322 
	C432.912506,584.321533 431.056702,586.229431 429.761719,586.371948 
	C428.453369,586.515991 425.797546,584.811462 425.764587,583.847351 
	C425.707245,582.167480 427.210449,580.434387 428.392212,578.592590 
z"/>
<path fill="#CF1D2F" opacity="1.000000" stroke="none" 
	d="
M457.826141,499.734558 
	C456.853973,499.986389 456.106354,499.961700 454.985626,499.903320 
	C457.374207,495.100586 460.135864,490.331451 463.453430,485.284607 
	C464.680328,485.009308 465.351349,485.011749 466.022400,485.014160 
	C463.365143,489.828766 460.707886,494.643372 457.826141,499.734558 
z"/>
<path fill="#FF4E02" opacity="1.000000" stroke="none" 
	d="
M467.160400,443.255798 
	C468.825226,442.018127 470.392181,440.572693 472.004333,440.520386 
	C472.906311,440.491119 474.466827,442.697052 474.639130,444.036224 
	C474.773682,445.081909 473.469910,446.966614 472.380280,447.393341 
	C469.082947,448.684631 467.473602,446.837585 467.160400,443.255798 
z"/>
<path fill="#DC2327" opacity="1.000000" stroke="none" 
	d="
M413.362854,484.603699 
	C412.387970,485.010529 411.424286,484.984924 410.099304,484.934875 
	C410.721680,480.500641 411.705261,476.090881 412.861938,471.346863 
	C413.438385,471.009399 413.841705,471.006195 414.547546,471.001465 
	C414.358032,475.390350 413.865997,479.780792 413.362854,484.603699 
z"/>
<path fill="#DC2327" opacity="1.000000" stroke="none" 
	d="
M466.205261,484.730469 
	C465.351349,485.011749 464.680328,485.009308 463.673706,485.010345 
	C465.374603,481.467560 467.411133,477.921326 469.719513,474.178406 
	C470.446167,474.305206 470.900970,474.628662 471.648010,474.975677 
	C470.089478,478.148438 468.238770,481.297607 466.205261,484.730469 
z"/>
<path fill="#8C0E5B" opacity="1.000000" stroke="none" 
	d="
M510.505005,553.642456 
	C510.835571,553.350830 510.962219,553.525391 511.112610,553.886169 
	C511.125183,563.250549 511.058929,572.468750 510.927734,582.119751 
	C510.693939,573.057983 510.525024,563.563354 510.505005,553.642456 
z"/>
<path fill="#B7143E" opacity="1.000000" stroke="none" 
	d="
M561.595337,507.847961 
	C561.932434,508.017944 561.946106,508.253876 561.943481,508.844025 
	C561.358643,508.987732 560.790222,508.777191 560.221741,508.566650 
	C560.571777,508.349091 560.921875,508.131531 561.595337,507.847961 
z"/>
</svg>